<?xml version="1.0" encoding="UTF-8"?>
<svg xmlns="http://www.w3.org/2000/svg" width="36.885" height="36.884" viewBox="0 0 36.885 36.884">
  <g id="Professionalism" transform="translate(-8089.282 -490.505)">
    <path id="Path_110" data-name="Path 110" d="M8296.825,527.389a5.229,5.229,0,0,0,.2-1.561q-.006-8.047,0-16.093a3.189,3.189,0,0,0-2.169-3.183,3.688,3.688,0,0,0-1.2-.176c-1.211,0-2.423-.008-3.635,0-.24,0-.3-.069-.3-.3.01-1.272,0-2.544.012-3.816,0-.292-.085-.363-.362-.353-.562.021-1.128,0-1.691.007a1.069,1.069,0,0,1-1.08-.627,1.105,1.105,0,0,1,.236-1.258q3.857-4.517,7.7-9.041a1.078,1.078,0,0,1,1.783-.025q3.882,4.542,7.751,9.093a3.1,3.1,0,0,1,.322.537v.576a1.422,1.422,0,0,1-1.521.752c-.536-.038-1.08.016-1.617-.016-.342-.021-.4.1-.4.415q.013,11.836.007,23.672c0,.12,0,.24,0,.359a1.018,1.018,0,0,1-.85.966c-.9,0-1.795,0-2.7,0-.115,0-.242-.04-.336.07Z" transform="translate(-178.222 0)" fill="#4800e2"></path>
    <path id="Path_111" data-name="Path 111" d="M8398.414,872.867a.077.077,0,0,0-.008.07h-3.024c.094-.11.222-.07.337-.07C8396.616,872.864,8397.514,872.866,8398.414,872.867Z" transform="translate(-276.634 -345.548)" fill="#4800e2"></path>
    <path id="Path_112" data-name="Path 112" d="M8103,782.348H8090.65c-.987,0-1.362-.378-1.362-1.372,0-2.653,0-5.305-.007-7.958,0-.284.073-.354.354-.351q2.484.021,4.969,0c.292,0,.374.083.352.361a4.978,4.978,0,0,0,0,.791,1.077,1.077,0,0,0,1.046,1,1.063,1.063,0,0,0,1.075-.918,6.832,6.832,0,0,0,.026-.97c0-.171.023-.259.23-.258q2.18.013,4.358,0c.205,0,.238.084.232.257-.01.276-.014.553,0,.828a1.074,1.074,0,0,0,2.148-.006c.015-.275.013-.552,0-.828-.007-.18.041-.252.238-.251q2.18.012,4.358,0c.172,0,.233.051.226.224-.012.264-.011.528,0,.792a1.1,1.1,0,0,0,1.072,1.129,1.09,1.09,0,0,0,1.086-1.144c.006-.264.007-.528,0-.792,0-.154.051-.209.207-.209,1.741,0,3.481.007,5.223,0,.291,0,.218.188.218.339q0,2.809,0,5.617v2.413c0,.911-.4,1.309-1.322,1.309Z" transform="translate(0.001 -255)" fill="#4800e2"></path>
    <path id="Path_113" data-name="Path 113" d="M8103.024,677.062h12.348c.966,0,1.364.393,1.365,1.346,0,1.776-.007,3.552.006,5.328,0,.287-.05.386-.363.383q-2.467-.026-4.933,0c-.308,0-.385-.089-.364-.382.026-.382.015-.768,0-1.152a1.076,1.076,0,0,0-2.151-.038c-.023.431-.014.864,0,1.3,0,.185-.02.274-.244.274q-5.653-.011-11.3,0c-.214,0-.259-.07-.252-.267.015-.383.008-.768,0-1.152a1.086,1.086,0,1,0-2.159-.012c0,.4-.01.792,0,1.188.006.193-.062.242-.247.241q-2.591-.009-5.185,0c-.187,0-.239-.051-.238-.24.007-1.908,0-3.816.008-5.724a1.06,1.06,0,0,1,.929-1.067,2.89,2.89,0,0,1,.466-.022Z" transform="translate(-0.025 -168.598)" fill="#4800e2"></path>
    <path id="Path_114" data-name="Path 114" d="M8190.628,615.828c1.056,0,2.114,0,3.168,0a1.135,1.135,0,0,1,1.3,1.3c0,.732-.006,1.465,0,2.2,0,.219-.032.322-.289.312-.553-.021-1.1-.013-1.656,0-.173,0-.229-.048-.224-.222.012-.384,0-.768.008-1.152.006-.194-.04-.278-.257-.276q-2.072.013-4.141,0c-.194,0-.247.071-.242.253.01.384-.006.768.006,1.152.007.189-.049.25-.242.246-.553-.013-1.1-.012-1.657,0-.2,0-.273-.044-.27-.258.012-.8-.006-1.609.008-2.413a1.087,1.087,0,0,1,1.206-1.136C8188.444,615.822,8189.536,615.828,8190.628,615.828Z" transform="translate(-87.531 -113.257)" fill="#4800e2"></path>
  </g>
</svg>
