<?xml version="1.0" encoding="UTF-8"?>
<svg xmlns="http://www.w3.org/2000/svg" width="43" height="42" viewBox="0 0 43 42" fill="none">
  <g clip-path="url(#clip0_144_222)">
    <path d="M21.835 0C22.4338 0.238119 22.7293 0.705578 22.9304 1.28387C23.3022 2.35376 23.7235 3.40718 24.1089 4.47378C24.1954 4.71519 24.3235 4.80847 24.5864 4.82054C25.7604 4.87101 26.9333 4.94234 28.1062 5.00269C28.814 5.0389 29.278 5.33408 29.4802 5.88494C29.6836 6.44128 29.5263 6.95483 28.9837 7.41351C28.0635 8.19151 27.1445 8.97171 26.2031 9.72337C25.9402 9.93296 25.911 10.1217 25.9907 10.4169C26.3098 11.5888 26.6064 12.7673 26.9108 13.9437C27.0906 14.6383 26.9243 15.1694 26.4199 15.5117C25.9121 15.8563 25.3638 15.8311 24.747 15.4229C23.764 14.7721 22.7765 14.128 21.8069 13.4576C21.5687 13.293 21.4182 13.3083 21.1901 13.4641C20.2183 14.1302 19.2319 14.7765 18.2488 15.4272C17.6332 15.8344 17.0793 15.8563 16.5771 15.5052C16.0682 15.1507 15.9109 14.6405 16.094 13.936C16.4063 12.7333 16.7153 11.5307 17.0377 10.3313C17.1018 10.0932 17.0602 9.93515 16.8591 9.77165C15.9142 9.00133 14.9806 8.21784 14.0459 7.43545C13.4797 6.96141 13.3123 6.45006 13.5235 5.88055C13.7325 5.31872 14.2032 5.03671 14.9424 5.00159C16.1019 4.94673 17.2613 4.86992 18.4207 4.82054C18.6859 4.80956 18.8083 4.70751 18.8937 4.46939C19.2543 3.46754 19.6498 2.47666 20.0003 1.47151C20.2115 0.866884 20.4699 0.316029 21.08 0H21.8361L21.835 0Z" fill="#1AAEF4"></path>
    <path d="M43.0002 41.0977C42.8609 41.1437 42.8564 41.2875 42.789 41.3841C42.5261 41.756 42.1722 41.9931 41.7071 41.9942C38.7962 42.0018 35.8864 41.9986 33.0215 41.9986C33.2922 39.2311 33.1001 36.4648 33.1439 33.705C33.1496 33.3374 33.2316 33.231 33.6214 33.2342C36.1268 33.2529 38.6321 33.2661 41.1375 33.231C41.9835 33.2189 42.6272 33.4296 43.0013 34.2076V41.0977H43.0002Z" fill="#1AAEF4"></path>
    <path d="M30.4647 30.637C30.4647 33.8906 30.4647 37.1442 30.4647 40.3977C30.4647 41.517 29.9727 41.9998 28.8346 41.9998C23.9362 41.9998 19.0378 41.9998 14.1395 41.9998C13.0407 41.9998 12.5352 41.4994 12.5352 40.4142C12.5352 33.8796 12.5352 27.3462 12.5352 20.8116C12.5352 19.745 13.0329 19.2578 14.1226 19.2578C19.0491 19.2578 23.9755 19.2578 28.902 19.2578C29.9558 19.2578 30.4647 19.7604 30.4659 20.7963C30.467 24.0773 30.4659 27.3582 30.4659 30.6381L30.4647 30.637ZM22.8431 30.625C22.8431 29.6143 22.8498 28.6048 22.8408 27.5942C22.833 26.8107 22.2656 26.2653 21.4634 26.2499C21.3241 26.2478 21.1837 26.2467 21.0444 26.2499C20.4905 26.2653 20.0748 26.5199 19.8423 27.0016C19.6187 27.4658 19.6558 27.9409 19.9917 28.3491C20.1276 28.5148 20.1591 28.675 20.1591 28.8714C20.1546 30.4417 20.1546 32.0109 20.158 33.5812C20.1602 34.402 20.7388 35.0066 21.505 35.0022C22.2768 34.9978 22.8397 34.4009 22.8431 33.5724C22.8464 32.5892 22.8431 31.6071 22.8431 30.6239V30.625Z" fill="#1AAEF4"></path>
    <path d="M10.0852 42.0004C9.91777 42.0004 9.77958 42.0004 9.64139 42.0004C6.95516 42.0004 4.27005 42.0004 1.58381 42.0004C0.526617 42.0004 0.00195312 41.4956 0.00195312 40.4784C0.00195312 37.4037 0.00195312 34.3301 0.00195312 31.2554C0.00195312 30.2722 0.518753 29.7587 1.5164 29.7587C4.17455 29.7565 6.83158 29.7631 9.48972 29.751C9.78745 29.7499 9.85598 29.8278 9.85485 30.112C9.84362 33.3776 9.85036 36.6433 9.84587 39.9089C9.84587 40.6057 9.84025 41.3003 10.084 42.0015L10.0852 42.0004Z" fill="#1AAEF4"></path>
  </g>
  <defs>
    <clipPath id="clip0_144_222">
      <rect width="43" height="42" fill="white"></rect>
    </clipPath>
  </defs>
</svg>
