<?xml version="1.0" encoding="UTF-8"?>
<svg xmlns="http://www.w3.org/2000/svg" width="42" height="42" viewBox="0 0 42 42" fill="none">
  <g clip-path="url(#clip0_144_232)">
    <path d="M9.99404 21.7051C7.40364 21.7051 4.81438 21.7051 2.22399 21.7051C1.05265 21.7051 0.534347 21.1753 0.559463 20.0052C0.655361 15.4399 4.368 11.4636 8.93003 11.0424C13.7638 10.596 17.9034 13.4146 19.1284 17.9879C19.3202 18.7049 19.4206 19.4355 19.4298 20.1776C19.4412 21.124 18.8863 21.6959 17.9342 21.7028C16.5402 21.7119 15.1452 21.7051 13.7501 21.7051C12.4977 21.7051 11.2453 21.7051 9.9929 21.7051H9.99404Z" fill="#11B400"></path>
    <path d="M32.1148 41.3792C29.497 41.3792 26.8781 41.3792 24.2603 41.3792C23.1928 41.3792 22.6688 40.8403 22.686 39.7672C22.7567 35.2898 26.1954 31.4209 30.6809 30.7702C35.5512 30.0646 40.0093 32.9712 41.2594 37.6724C41.4535 38.403 41.5551 39.1485 41.5574 39.9054C41.5608 40.7981 40.9934 41.3769 40.0972 41.378C37.436 41.3815 34.7749 41.3792 32.1148 41.3792Z" fill="#11B400"></path>
    <path d="M14.7598 5.17147C14.7439 7.81203 12.5747 9.96055 9.96378 9.92287C7.31174 9.88406 5.21339 7.74467 5.2385 5.10525C5.26362 2.4647 7.41334 0.354989 10.0517 0.380105C12.6604 0.40522 14.7758 2.55831 14.7598 5.17147Z" fill="#11B400"></path>
    <path d="M27.3535 24.8267C27.3535 22.1987 29.5215 20.033 32.1313 20.0558C34.7594 20.0787 36.8646 22.1895 36.876 24.813C36.8874 27.4547 34.7651 29.5895 32.1233 29.5952C29.4895 29.5998 27.3535 27.4661 27.3535 24.8278V24.8267Z" fill="#11B400"></path>
    <path d="M25.4141 3.78851C26.6813 3.78851 27.9486 3.78508 29.2146 3.78851C33.07 3.80221 36.0771 6.81036 36.0908 10.669C36.0976 12.5047 36.0931 14.3416 36.0908 16.1773C36.0908 17.0803 35.5291 17.7059 34.7277 17.7082C33.9262 17.7105 33.3588 17.0815 33.3588 16.1819C33.3565 14.417 33.3143 12.6509 33.3691 10.8871C33.4467 8.36296 31.4477 6.43363 28.9738 6.50441C26.3708 6.57862 23.7644 6.5261 21.1592 6.51811C20.1123 6.51583 19.4353 5.59911 19.7766 4.6744C19.9799 4.12414 20.4673 3.78965 21.101 3.78851C22.5383 3.78394 23.9768 3.78737 25.4141 3.78737V3.78851Z" fill="#11B400"></path>
    <path d="M15.5034 37.9689C14.4337 37.9129 13.1208 38.0705 11.817 37.8867C8.64666 37.4403 6.10535 34.6365 6.03457 31.4502C5.99005 29.4444 6.01745 27.4363 6.02544 25.4294C6.02886 24.6382 6.64764 24.0366 7.40569 24.048C8.14776 24.0594 8.74713 24.6519 8.75169 25.4225C8.76197 27.2582 8.75398 29.0951 8.75626 30.932C8.75854 33.4937 10.5053 35.2336 13.0763 35.2358C15.0696 35.2381 17.0629 35.2313 19.0551 35.2393C19.7949 35.2416 20.3828 35.7427 20.4627 36.4083C20.5472 37.1104 20.1568 37.728 19.4912 37.9164C19.3302 37.962 19.1544 37.9677 18.9854 37.9677C17.9031 37.9723 16.822 37.97 15.5023 37.97L15.5034 37.9689Z" fill="#11B400"></path>
  </g>
  <defs>
    <clipPath id="clip0_144_232">
      <rect width="41" height="41" fill="white" transform="translate(0.558594 0.379883)"></rect>
    </clipPath>
  </defs>
</svg>
