<?xml version="1.0" encoding="UTF-8"?>
<svg xmlns="http://www.w3.org/2000/svg" width="43.434" height="43.426" viewBox="0 0 43.434 43.426">
  <g id="UX" transform="translate(-6016.806 -1365.397)">
    <path id="Path_72" data-name="Path 72" d="M6114.156,1527.906a1.634,1.634,0,0,1-.943-1.752c.069-1.524-.1-3.056.093-4.576a11.278,11.278,0,0,1,6.181-8.955c.173-.094.353-.175.577-.286a7.577,7.577,0,0,1-2.905-7.339,7.238,7.238,0,0,1,2.776-4.7,7.63,7.63,0,1,1,9.365,12.046,11.684,11.684,0,0,1,2.482,1.512,11.272,11.272,0,0,1,4.334,8.648c.047,1.257-.014,2.517.022,3.775a1.483,1.483,0,0,1-1.027,1.628h-.169c-.125-.139-.291-.083-.439-.083q-9.869,0-19.738,0c-.148,0-.314-.056-.439.083Z" transform="translate(-86.157 -119.083)" fill="#11b400"></path>
    <path id="Path_73" data-name="Path 73" d="M6318.467,1443.681a17.19,17.19,0,0,1-2.208,2.254.518.518,0,0,0-.189.544c.16.759.269,1.529.41,2.292a1.3,1.3,0,0,1-.458,1.366,1.256,1.256,0,0,1-1.433.091c-.741-.376-1.485-.748-2.218-1.14a.5.5,0,0,0-.541,0c-.7.372-1.4.722-2.1,1.088a1.31,1.31,0,0,1-1.981-1.5c.151-.732.244-1.476.391-2.209a.476.476,0,0,0-.163-.512c-.562-.517-1.106-1.052-1.665-1.573a1.333,1.333,0,0,1-.5-1.467,1.373,1.373,0,0,1,1.291-.927c.77-.1,1.537-.231,2.308-.319a.488.488,0,0,0,.429-.324c.343-.7.708-1.379,1.048-2.075a1.33,1.33,0,0,1,2.433,0c.341.7.706,1.38,1.048,2.075a.49.49,0,0,0,.43.324c.715.082,1.423.232,2.139.3a1.607,1.607,0,0,1,1.531,1.033Z" transform="translate(-258.227 -65.315)" fill="#11b400"></path>
    <path id="Path_74" data-name="Path 74" d="M6123.713,1773.149c.125-.139.291-.083.439-.083q9.869,0,19.738,0c.148,0,.314-.056.439.083Z" transform="translate(-95.543 -364.326)" fill="#11b400"></path>
    <path id="Path_75" data-name="Path 75" d="M6163.214,1375.906c.134-.783.273-1.661.44-2.534a.445.445,0,0,0-.155-.476c-.571-.528-1.128-1.07-1.694-1.6a1.3,1.3,0,0,1,.751-2.36c.785-.1,1.565-.228,2.35-.326a.5.5,0,0,0,.442-.322c.338-.7.706-1.38,1.044-2.078a1.334,1.334,0,0,1,2.459.009c.332.685.694,1.354,1.025,2.04a.538.538,0,0,0,.469.35c.8.1,1.593.227,2.391.333a1.3,1.3,0,0,1,1.171.892,1.274,1.274,0,0,1-.424,1.41c-.571.549-1.142,1.1-1.724,1.634a.476.476,0,0,0-.176.509c.154.761.263,1.53.408,2.293a1.308,1.308,0,0,1-.475,1.4,1.258,1.258,0,0,1-1.433.072c-.728-.373-1.458-.74-2.176-1.13a.543.543,0,0,0-.584.006c-.746.4-1.493.8-2.258,1.155A1.275,1.275,0,0,1,6163.214,1375.906Z" transform="translate(-129.098 0)" fill="#11b400"></path>
    <path id="Path_76" data-name="Path 76" d="M6018.759,1448.977c.131-.762.262-1.626.437-2.482a.538.538,0,0,0-.207-.578c-.551-.506-1.084-1.032-1.632-1.543a1.321,1.321,0,0,1-.48-1.47,1.359,1.359,0,0,1,1.258-.908c.783-.108,1.563-.23,2.347-.327a.454.454,0,0,0,.4-.293c.345-.709.717-1.4,1.066-2.112a1.329,1.329,0,0,1,2.431.016c.346.709.716,1.405,1.066,2.112a.424.424,0,0,0,.372.274c.8.1,1.593.217,2.389.333,1.045.152,1.586.982,1.194,1.827a1.791,1.791,0,0,1-.417.529c-.563.535-1.121,1.076-1.692,1.6a.475.475,0,0,0-.165.511c.153.76.265,1.528.407,2.29a1.3,1.3,0,0,1-.479,1.4,1.272,1.272,0,0,1-1.435.063c-.715-.365-1.435-.721-2.139-1.106a.61.61,0,0,0-.657.008c-.72.386-1.442.767-2.18,1.119A1.278,1.278,0,0,1,6018.759,1448.977Z" transform="translate(0 -65.316)" fill="#11b400"></path>
  </g>
</svg>
