<?xml version="1.0" encoding="UTF-8"?>
<svg xmlns="http://www.w3.org/2000/svg" width="33.619" height="42.633" viewBox="0 0 33.619 42.633">
  <g id="Brand_Identity" transform="translate(-6740.446 -1270.729)">
    <path id="Path_68" data-name="Path 68" d="M6752.089,1272.33a4.761,4.761,0,0,0,3.266-.8c.441-.248.915-.437,1.368-.668a1.109,1.109,0,0,1,1.054-.008c.912.444,1.833.87,2.742,1.321a1.462,1.462,0,0,0,.688.154c.976-.007,1.951.009,2.927-.008a1.225,1.225,0,0,1,1.056.509c.6.768,1.217,1.523,1.819,2.29a1.462,1.462,0,0,0,.547.446c.907.423,1.8.87,2.707,1.3a1.155,1.155,0,0,1,.681.854c.209.965.442,1.925.657,2.888a1.563,1.563,0,0,0,.322.675c.626.765,1.231,1.548,1.855,2.316a1.2,1.2,0,0,1,.245,1.108c-.213.892-.4,1.789-.625,2.678a2.241,2.241,0,0,0,0,1.122c.222.889.413,1.787.625,2.678a1.2,1.2,0,0,1-.25,1.107c-.625.767-1.229,1.551-1.855,2.316a1.566,1.566,0,0,0-.318.677c-.211.95-.443,1.9-.645,2.848a1.23,1.23,0,0,1-.736.913c-.893.42-1.776.858-2.67,1.277a1.391,1.391,0,0,0-.52.414c-.6.767-1.219,1.522-1.816,2.292a1.273,1.273,0,0,1-1.129.537c-.735-.024-1.473.032-2.206-.017a3.629,3.629,0,0,0-2.017.471c-.67.358-1.375.653-2.053,1a1.144,1.144,0,0,1-1.13-.013c-.323-.172-.683-.286-.984-.487a6.837,6.837,0,0,0-4.657-.944,2.005,2.005,0,0,1-2.125-1.031,7.432,7.432,0,0,0-4.031-3.226c-.171-.061-.323-.178-.495-.237a1.274,1.274,0,0,1-.862-1.054c-.186-.883-.407-1.759-.593-2.642a1.926,1.926,0,0,0-.4-.864c-.612-.741-1.2-1.5-1.8-2.249a1.172,1.172,0,0,1-.238-1.07c.229-.989.449-1.981.683-2.969a1.143,1.143,0,0,0,.01-.541c-.232-.989-.448-1.981-.684-2.969a1.225,1.225,0,0,1,.26-1.143c.611-.742,1.2-1.505,1.8-2.249a1.723,1.723,0,0,0,.359-.749c.212-.964.446-1.924.658-2.888a1.119,1.119,0,0,1,.663-.819c.879-.415,1.751-.845,2.631-1.258a1.717,1.717,0,0,0,.654-.513c.6-.771,1.218-1.523,1.819-2.291a1.165,1.165,0,0,1,1.021-.487C6750.858,1272.343,6751.353,1272.33,6752.089,1272.33Zm5.176,28.09a12.389,12.389,0,1,0-12.4-12.4A12.409,12.409,0,0,0,6757.266,1300.421Z" fill="#e8b400"></path>
    <path id="Path_69" data-name="Path 69" d="M6906.115,1542.107c.606-.294,1.183-.582,1.769-.851a.937.937,0,0,1,.374-.034c.919,0,1.838-.016,2.757,0a2.151,2.151,0,0,0,1.835-.872c.568-.722,1.156-1.427,1.709-2.159a2.041,2.041,0,0,1,.751-.521c.156-.084.226.007.308.116,1.433,1.89,2.88,3.771,4.3,5.673a.982.982,0,0,1-.626,1.577q-1.74.364-3.494.666a.85.85,0,0,0-.712.537c-.466,1.011-.969,2-1.462,3a1.051,1.051,0,0,1-1.954.172l-5.26-6.913C6906.316,1542.379,6906.226,1542.255,6906.115,1542.107Z" transform="translate(-146.88 -236.639)" fill="#e8b400"></path>
    <path id="Path_70" data-name="Path 70" d="M6755.173,1550.4a1,1,0,0,1-.866-.637c-.511-1.052-1.039-2.1-1.54-3.153a.781.781,0,0,0-.649-.5c-1.155-.193-2.306-.416-3.453-.651a1.007,1.007,0,0,1-.638-1.7q1.979-2.621,3.975-5.229c.439-.578.778-.581,1.254.008.533.659,1.084,1.306,1.58,1.993a2.4,2.4,0,0,0,2.28,1.1c.408-.033.824.033,1.229-.013a4.905,4.905,0,0,1,3.139.746c.2.117.278.162.112.379q-2.755,3.6-5.494,7.215A1.07,1.07,0,0,1,6755.173,1550.4Z" transform="translate(-6.481 -237.046)" fill="#e8b400"></path>
    <path id="Path_71" data-name="Path 71" d="M6799.748,1345.78a11.37,11.37,0,1,1,11.4-11.348A11.392,11.392,0,0,1,6799.748,1345.78Zm-.011-5.09h4.113c.894,0,1.208-.276,1.353-1.161.293-1.8.585-3.594.892-5.388a1.021,1.021,0,0,0-.415-1.114.994.994,0,0,0-1.188.021c-.578.379-1.166.744-1.733,1.139-.228.159-.331.144-.475-.1-.506-.864-1.033-1.716-1.56-2.568a1.025,1.025,0,0,0-1.888,0c-.526.852-1.054,1.7-1.56,2.568-.144.246-.245.259-.473.1-.59-.411-1.2-.8-1.807-1.181a.968.968,0,0,0-1.117.021.955.955,0,0,0-.437.99q.464,2.841.951,5.679c.127.738.466,1,1.229,1Q6797.68,1340.691,6799.737,1340.69Zm-6.068-8.829a1.017,1.017,0,1,0-1.025,1.021A1.025,1.025,0,0,0,6793.668,1331.861Zm13.238,1.021a1.017,1.017,0,1,0-1.016-1.029A1.026,1.026,0,0,0,6806.906,1332.882Zm-6.109-3.713a1.017,1.017,0,1,0-2.034.037,1.017,1.017,0,0,0,2.034-.037Z" transform="translate(-42.523 -46.379)" fill="#e8b400"></path>
  </g>
</svg>
