<?xml version="1.0" encoding="UTF-8"?>
<svg xmlns="http://www.w3.org/2000/svg" width="35.397" height="35.386" viewBox="0 0 35.397 35.386">
  <g id="Increase_Business" transform="translate(-7631.129 -417.86)">
    <path id="Path_108" data-name="Path 108" d="M7631.129,567.864a1.35,1.35,0,0,1,1.523-.768c.619.036.62.008.62-.617q0-3.231,0-6.462a1.066,1.066,0,0,1,1.207-1.208q1.919,0,3.836,0a1.056,1.056,0,0,1,1.178,1.168c0,2.269,0,4.539,0,6.808,0,.242.032.344.309.327a12.193,12.193,0,0,1,1.382,0c.3.016.4-.051.4-.38-.016-3.053-.009-6.105-.009-9.158,0-.874.383-1.252,1.266-1.252q1.9,0,3.8,0a1.051,1.051,0,0,1,1.153,1.158q0,4.648-.006,9.3c0,.269.063.35.335.336a13.986,13.986,0,0,1,1.417,0c.271.014.335-.066.335-.336q-.015-5.927-.007-11.854c0-.426,0-.852,0-1.279a1.043,1.043,0,0,1,1.117-1.123q1.988-.006,3.974,0a1.046,1.046,0,0,1,1.129,1.147q0,6.532-.007,13.063c0,.326.093.4.4.382.47-.025.945-.022,1.415,0,.24.011.3-.076.273-.29a1.2,1.2,0,0,1,0-.173V546.879c0-.9.375-1.275,1.278-1.275h3.732a1.066,1.066,0,0,1,1.209,1.205q0,9.953-.005,19.906c0,.3.049.439.381.393a4.526,4.526,0,0,1,.656-.005,1.057,1.057,0,0,1,1.1.888,1.032,1.032,0,0,1-.78,1.137c-.018.006-.028.032-.042.049h-33.735a1.231,1.231,0,0,1-.829-.83Z" transform="translate(0 -115.931)" fill="#11b400"></path>
    <path id="Path_109" data-name="Path 109" d="M7631.129,438.8a1.41,1.41,0,0,1,1.431-.759,30.682,30.682,0,0,0,12.486-2.975,39.34,39.34,0,0,0,14.1-10.752,27.381,27.381,0,0,0,2.645-3.8c-.487.126-.911.234-1.333.346-.865.231-1.73.465-2.6.7a1.043,1.043,0,1,1-.55-2q3.078-.829,6.158-1.65a1.018,1.018,0,0,1,1.33.756q.843,3.111,1.667,6.226a1.033,1.033,0,0,1-.665,1.326,1.12,1.12,0,0,1-1.346-.832q-.453-1.68-.9-3.362a.355.355,0,0,0-.11-.223,31.076,31.076,0,0,1-1.827,2.718,40.509,40.509,0,0,1-11.466,10.2,37.749,37.749,0,0,1-11.736,4.732,31.252,31.252,0,0,1-5.786.683,1.426,1.426,0,0,1-1.5-.711Z" transform="translate(0)" fill="#11b400"></path>
  </g>
</svg>
