<?xml version="1.0" encoding="UTF-8"?>
<svg xmlns="http://www.w3.org/2000/svg" width="37" height="36" viewBox="0 0 37 36" fill="none">
  <g clip-path="url(#clip0_144_255)">
    <path d="M36.0509 35.3735C24.1957 35.3735 12.3406 35.3726 0.485438 35.3808C0.173831 35.3808 0.0677715 35.3168 0.0884201 34.9998C0.119393 34.5237 0.105314 34.0431 0.0921744 33.5652C0.086543 33.3743 0.139103 33.314 0.340897 33.3195C0.855236 33.3332 1.37145 33.3085 1.88485 33.3304C2.14672 33.3414 2.21054 33.2747 2.2096 33.017C2.19834 30.4769 2.20772 27.9367 2.19552 25.3975C2.19364 25.1152 2.26028 25.0448 2.55406 25.0466C4.46124 25.0613 6.36937 25.0594 8.27655 25.0476C8.53841 25.0457 8.6013 25.1051 8.60036 25.3619C8.5891 27.913 8.59754 30.465 8.58722 33.0161C8.58628 33.271 8.64635 33.3432 8.91009 33.3313C9.41223 33.3085 9.91624 33.3121 10.4193 33.3304C10.6502 33.3386 10.7075 33.2729 10.7056 33.0508C10.6953 31.365 10.7 29.6792 10.7 27.9934C10.7 25.7493 10.7046 23.5061 10.6934 21.262C10.6924 21.0062 10.7553 20.9459 11.0172 20.9477C12.9131 20.9596 14.809 20.9605 16.705 20.9477C16.9687 20.9459 17.0278 21.0098 17.0269 21.2629C17.0175 25.17 17.0241 29.0761 17.0128 32.9832C17.0128 33.2683 17.0804 33.3469 17.3732 33.3323C17.8866 33.3058 18.4028 33.3185 18.9172 33.3286C19.088 33.3323 19.1509 33.2802 19.1284 33.1175C19.119 33.0508 19.1265 32.9814 19.1265 32.9129C19.1265 26.3176 19.1293 19.7233 19.119 13.1281C19.119 12.8183 19.1969 12.7416 19.5141 12.7443C21.3744 12.7599 23.2356 12.7599 25.0968 12.7443C25.3905 12.7416 25.4553 12.8129 25.4544 13.0952C25.445 19.7124 25.4497 26.3304 25.4393 32.9476C25.4393 33.2564 25.5135 33.3496 25.8335 33.3313C26.3347 33.303 26.8397 33.3167 27.3428 33.3277C27.5127 33.3313 27.5624 33.2811 27.5568 33.1175C27.5446 32.7539 27.553 32.3884 27.553 32.0238C27.553 27.0806 27.5558 22.1374 27.5455 17.1941C27.5455 16.91 27.6131 16.8424 27.905 16.8451C29.8122 16.8597 31.7203 16.8579 33.6275 16.8451C33.8912 16.8433 33.9503 16.9063 33.9494 17.1603C33.941 22.4224 33.9457 27.6846 33.9353 32.9467C33.9353 33.2555 34.0104 33.346 34.3305 33.3304C34.9021 33.303 35.4765 33.3231 36.0499 33.3231V35.3735H36.0509Z" fill="#E8B400"></path>
    <path d="M22.3555 0.380859C22.2842 0.492333 22.3874 0.562689 22.4287 0.640356C22.9834 1.67834 23.5456 2.71176 24.0975 3.75065C24.1848 3.91512 24.2787 4.00284 24.4823 4.03025C25.6743 4.19289 26.8635 4.37472 28.0536 4.55107C28.1916 4.57117 28.3295 4.59584 28.4703 4.6196C28.4478 4.75849 28.3342 4.81331 28.2554 4.89006C27.3816 5.7316 26.5087 6.57313 25.6274 7.40644C25.4763 7.54898 25.4397 7.67873 25.4772 7.88341C25.7081 9.15896 25.9193 10.4372 26.1455 11.7667C25.3627 11.3729 24.6194 11.001 23.8769 10.6273C23.4208 10.398 22.9618 10.1732 22.5123 9.93288C22.3527 9.8479 22.2307 9.8479 22.0655 9.93288C20.9721 10.4957 19.872 11.0458 18.7739 11.5977C18.6725 11.6488 18.5806 11.7274 18.4351 11.7247C18.6528 10.4427 18.8621 9.16444 19.094 7.8898C19.1343 7.66868 19.0789 7.53893 18.926 7.38634C18.0033 6.46623 17.092 5.53606 16.1797 4.61138C16.7156 4.53097 17.3285 4.43868 17.9405 4.34731C18.6679 4.23949 19.3962 4.13076 20.1245 4.0266C20.2569 4.00741 20.3563 3.97817 20.4277 3.84385C21.0218 2.72363 21.6244 1.60798 22.2251 0.490506C22.2448 0.453043 22.2767 0.413753 22.2166 0.381773H22.3574L22.3555 0.380859Z" fill="#E8B400"></path>
    <path d="M8.52785 8.65053C7.2176 8.65053 5.90641 8.64596 4.59616 8.6551C4.37653 8.65693 4.29488 8.6149 4.30332 8.38098C4.32303 7.85742 4.31552 7.33295 4.30614 6.80939C4.30332 6.65131 4.34087 6.59558 4.51638 6.59558C7.20821 6.60106 9.89911 6.60197 12.5909 6.59375C12.7993 6.59375 12.8115 6.6769 12.8096 6.83406C12.8031 7.33478 12.7927 7.83641 12.8134 8.33713C12.8237 8.58474 12.7665 8.66058 12.4952 8.65693C11.1728 8.64048 9.8503 8.64962 8.52879 8.64962L8.52785 8.65053Z" fill="#E8B400"></path>
    <path d="M8.55887 12.7514C7.23642 12.7514 5.91397 12.7459 4.59245 12.7569C4.36438 12.7587 4.29774 12.702 4.30525 12.4782C4.32308 11.9546 4.31745 11.4301 4.30712 10.9066C4.30431 10.7421 4.35405 10.6973 4.52206 10.6983C7.21389 10.7028 9.90479 10.7028 12.5966 10.6983C12.7646 10.6983 12.8153 10.7421 12.8116 10.9066C12.8012 11.4301 12.7956 11.9546 12.8134 12.4782C12.8209 12.702 12.7552 12.7596 12.5262 12.7569C11.2038 12.7459 9.88132 12.7514 8.55981 12.7514H8.55887Z" fill="#E8B400"></path>
    <path d="M8.55786 14.8024C9.88032 14.8024 11.2028 14.8079 12.5243 14.7969C12.7524 14.7951 12.8199 14.8508 12.8124 15.0756C12.7946 15.5992 12.8002 16.1236 12.8105 16.6472C12.8134 16.8117 12.7646 16.8564 12.5956 16.8564C9.90378 16.8519 7.21288 16.8519 4.52105 16.8564C4.35304 16.8564 4.30236 16.8135 4.30518 16.6481C4.3155 16.1246 4.32113 15.6001 4.3033 15.0765C4.29579 14.8527 4.36149 14.7951 4.5905 14.7969C5.91296 14.8079 7.23541 14.8024 8.55692 14.8024H8.55786Z" fill="#E8B400"></path>
    <path d="M0.112704 7.59375C0.123967 7.26847 -0.0496695 6.83445 0.163387 6.64897C0.348287 6.48907 0.785663 6.59506 1.11135 6.60328C1.46895 6.6115 1.94762 6.45252 2.14941 6.66907C2.32587 6.85912 2.2076 7.31781 2.19916 7.6568C2.19071 7.98208 2.34839 8.4161 2.1344 8.60158C1.9495 8.76148 1.51212 8.65549 1.18643 8.64727C0.828837 8.63905 0.349225 8.79895 0.149308 8.58057C-0.024328 8.39143 0.113643 7.93274 0.113643 7.59284L0.112704 7.59375Z" fill="#E8B400"></path>
    <path d="M1.17232 10.7013C1.44169 10.7013 1.71106 10.7141 1.9795 10.6967C2.17472 10.6839 2.20945 10.7588 2.20663 10.9288C2.19725 11.4633 2.19349 11.9997 2.20757 12.5342C2.21226 12.7233 2.14281 12.7581 1.96917 12.7553C1.41917 12.7462 0.869162 12.7425 0.320095 12.7562C0.12581 12.7608 0.0901442 12.6932 0.09296 12.5241C0.102346 11.9896 0.1061 11.4533 0.0920214 10.9187C0.0873285 10.7296 0.155845 10.6903 0.331358 10.6976C0.611992 10.7095 0.892626 10.7013 1.17326 10.7013H1.17232Z" fill="#E8B400"></path>
    <path d="M2.18767 15.8275C2.18767 16.1564 2.32 16.5977 2.15294 16.7832C1.95959 16.9979 1.49594 16.839 1.1496 16.849C0.812653 16.8581 0.358382 16.9687 0.166913 16.8033C-0.0536525 16.6133 0.10966 16.1628 0.0993353 15.8266C0.0899495 15.4985 -0.0236181 15.0572 0.146264 14.8699C0.341488 14.6552 0.804205 14.8142 1.1496 14.8041C1.48655 14.795 1.93894 14.6844 2.13229 14.8498C2.35567 15.0408 2.16702 15.4912 2.18673 15.8266L2.18767 15.8275Z" fill="#E8B400"></path>
  </g>
  <defs>
    <clipPath id="clip0_144_255">
      <rect width="36" height="35" fill="white" transform="translate(0.0507812 0.380859)"></rect>
    </clipPath>
  </defs>
</svg>
