<?xml version="1.0" encoding="UTF-8"?>
<svg xmlns="http://www.w3.org/2000/svg" width="42.817" height="37.46" viewBox="0 0 42.817 37.46">
  <g id="Education" transform="translate(-3872.67 -716.516)">
    <path id="Path_179" data-name="Path 179" d="M4091.8,736.009c-.24.28-.236.659-.405.975a3.906,3.906,0,0,1-3.648,2.2c-1.908.012-3.817,0-5.725,0h-.463c.342.936.667,1.831,1,2.724q1.857,5.05,3.715,10.1a1.421,1.421,0,0,1,.036,1.243,1.215,1.215,0,0,1-1.138.713,1.277,1.277,0,0,1-1.215-.919q-.414-1.109-.821-2.221-2.066-5.637-4.122-11.277c-.115-.316-.277-.372-.577-.373a.494.494,0,0,0-.572.375q-2.38,6.6-4.789,13.2a4.088,4.088,0,0,1-.2.5,1.247,1.247,0,0,1-1.621.619,1.233,1.233,0,0,1-.686-1.556c.469-1.362.968-2.713,1.459-4.067q1.573-4.335,3.159-8.665c.127-.344.063-.419-.287-.4-.444.026-.89.006-1.37.006a7.167,7.167,0,0,0,.206-2.108.841.841,0,0,1,.145-.383q1.231-2.473,2.468-4.944A3.747,3.747,0,0,0,4070,727.78c-.638,1.01-1.1,2.114-1.636,3.179-.132.263-.233.293-.488.161-.824-.43-1.662-.835-2.5-1.244-.159-.078-.264-.154-.263-.367.013-3.078-.021-6.157.035-9.234a3.855,3.855,0,0,1,3.878-3.74c1.6-.02,3.2,0,4.806,0,4.583,0,9.166.031,13.748-.014a4.055,4.055,0,0,1,4.147,3.195c.006.03.05.053.077.08ZM4078.469,724.4q3.279,0,6.559,0a1.407,1.407,0,0,0,.866-.232,1.244,1.244,0,0,0,.479-1.329,1.109,1.109,0,0,0-1.031-.89q-6.891-.1-13.783,0a.93.93,0,0,0-.394.118,1.215,1.215,0,0,0-.633,1.33,1.2,1.2,0,0,0,1.21,1C4073.984,724.4,4076.227,724.4,4078.469,724.4Zm3.91,6.925c-.946,0-1.891-.007-2.836,0a1.233,1.233,0,0,0-.175,2.451,9.052,9.052,0,0,0,1.416.033c1.432.007,2.865.015,4.3,0a1.246,1.246,0,1,0-.031-2.484C4084.159,731.319,4083.269,731.321,4082.379,731.322Zm-.032-4.691v-.006c-.877,0-1.754,0-2.631,0a1.634,1.634,0,0,0-.576.064,1.229,1.229,0,0,0-.8,1.392,1.175,1.175,0,0,0,1.162,1c1.907.013,3.815.006,5.722,0a1.15,1.15,0,0,0,.366-.063,1.2,1.2,0,0,0,.8-1.344,1.167,1.167,0,0,0-1.163-1.04C4084.269,726.618,4083.308,726.631,4082.347,726.631Z" transform="translate(-176.317)" fill="#11b400"></path>
    <path id="Path_180" data-name="Path 180" d="M3881.721,757.4a14.21,14.21,0,0,1,1.636.181,11.247,11.247,0,0,1,2.632,1.01q3.36,1.659,6.706,3.345c.249.126.336.085.454-.153.8-1.628,1.624-3.246,2.43-4.873a1.314,1.314,0,0,1,.866-.779,1.2,1.2,0,0,1,1.308.431,1.231,1.231,0,0,1,.116,1.408q-1.072,2.16-2.154,4.314c-.13.26-.249.527-.39.781a3.075,3.075,0,0,0-.433,1.832,3.412,3.412,0,0,1-5.057,3.151c-1.156-.573-2.307-1.154-3.461-1.731-.121-.06-.244-.115-.415-.2v.5q0,6.6,0,13.208c0,1.159-.459,1.62-1.615,1.62q-3.741,0-7.482,0a1.317,1.317,0,0,1-1.5-1.512c0-2.132-.007-4.263.008-6.395a.484.484,0,0,0-.341-.52,3.777,3.777,0,0,1-2.335-3.505c-.043-1.35-.012-2.7-.009-4.054a7.933,7.933,0,0,1,6.192-7.826c.347-.083.7-.133,1.1-.208a5.486,5.486,0,1,1,6.06-6.421A5.587,5.587,0,0,1,3881.721,757.4Z" transform="translate(0 -27.47)" fill="#11b400"></path>
  </g>
</svg>
