<?xml version="1.0" encoding="UTF-8"?>
<svg xmlns="http://www.w3.org/2000/svg" width="39.928" height="39.934" viewBox="0 0 39.928 39.934">
  <g id="Entertaiment" transform="translate(-3461.544 -1075.916)">
    <path id="Path_167" data-name="Path 167" d="M3461.544,1194.886v-24.8c.134-.089.117-.245.158-.372a3.51,3.51,0,0,1,3.314-2.434q16.493,0,32.986,0a3.476,3.476,0,0,1,3.468,3.469q.007,11.735,0,23.471a3.529,3.529,0,0,1-2.359,3.3c-.2.07-.428.03-.6.175h-34.156c-.027-.124-.146-.1-.221-.119a3.515,3.515,0,0,1-2.474-2.465C3461.633,1195.033,3461.669,1194.915,3461.544,1194.886Zm20-22.926h-13.878c-1.007,0-1.446.438-1.446,1.443q0,9.083,0,18.166c0,1.005.44,1.446,1.444,1.446h27.679c1,0,1.446-.44,1.446-1.444q0-9.083,0-18.166c0-1.005-.44-1.445-1.444-1.445Z" transform="translate(0 -81.843)" fill="#1aaef4"></path>
    <path id="Path_168" data-name="Path 168" d="M3560.706,1082.953c-1.113,0-2.147,0-3.182,0a.427.427,0,0,1-.323-.178q-2.383-2.383-4.764-4.767a1.182,1.182,0,1,1,1.652-1.679C3556.277,1078.516,3558.459,1080.7,3560.706,1082.953Z" transform="translate(-81.045 -0.01)" fill="#1aaef4"></path>
    <path id="Path_169" data-name="Path 169" d="M3670.756,1082.943l3.749-3.748c.973-.973,1.942-1.95,2.921-2.918a1.175,1.175,0,0,1,2.015.938,1.19,1.19,0,0,1-.369.751q-2.41,2.41-4.819,4.821a.431.431,0,0,1-.331.159C3672.9,1082.94,3671.874,1082.943,3670.756,1082.943Z" transform="translate(-187.409)" fill="#1aaef4"></path>
    <path id="Path_170" data-name="Path 170" d="M3541.764,1250.937q-6.277,0-12.554.008c-.323,0-.4-.073-.4-.4q.017-7.8,0-15.595c0-.324.074-.4.4-.4q12.554.015,25.108,0c.323,0,.4.073.4.4q-.017,7.8,0,15.594c0,.324-.074.4-.4.4Q3548.042,1250.926,3541.764,1250.937Zm-3.51-8.2c0,1.506,0,3.012,0,4.518a1.23,1.23,0,0,0,.636,1.2,1.184,1.184,0,0,0,1.31-.139q3.361-2.246,6.726-4.485a1.186,1.186,0,0,0-.009-2.157q-3.344-2.235-6.693-4.465a1.2,1.2,0,0,0-1.343-.151,1.24,1.24,0,0,0-.628,1.2C3538.259,1239.748,3538.255,1241.241,3538.255,1242.734Z" transform="translate(-60.257 -142.105)" fill="#1aaef4"></path>
    <path id="Path_171" data-name="Path 171" d="M3642.029,1294.269v-4.988l2.836,1.885c.238.158.476.314.712.474.1.067.209.124.029.243C3644.422,1292.668,3643.244,1293.458,3642.029,1294.269Z" transform="translate(-161.676 -191.129)" fill="#1aaef4"></path>
  </g>
</svg>
