<?xml version="1.0" encoding="UTF-8"?>
<svg xmlns="http://www.w3.org/2000/svg" width="38" height="40" viewBox="0 0 38 40" fill="none">
  <g clip-path="url(#clip0_144_244)">
    <path d="M14.9263 39.9999C15.1234 38.8212 15.2829 37.634 15.5345 36.4668C15.6651 35.8601 15.5741 35.455 15.0869 35.0134C14.2015 34.2094 13.4071 33.3084 12.5977 32.471C13.1308 32.3917 13.7807 32.2935 14.4317 32.1996C15.1565 32.0941 15.8803 31.9772 16.6084 31.8978C16.8621 31.8707 16.9713 31.7558 17.0709 31.5533C17.6084 30.4664 18.1555 29.3847 18.7004 28.302C18.7636 28.1757 18.8311 28.0525 18.9017 27.9188C19.0645 27.9982 19.0837 28.1527 19.1437 28.2717C19.6994 29.3638 20.2497 30.4591 20.7925 31.5575C20.8932 31.7611 21.0066 31.8623 21.2583 31.8947C22.6308 32.0732 23.9992 32.2821 25.4628 32.493C25.2326 32.708 25.0548 32.8709 24.8814 33.0369C24.0709 33.8106 23.2679 34.5916 22.4467 35.3538C22.2486 35.5375 22.1994 35.7056 22.2465 35.9656C22.4884 37.3083 22.709 38.6541 22.9371 39.9989H22.8568C22.8482 39.977 22.846 39.9436 22.83 39.9352C21.5869 39.2921 20.3418 38.6531 19.1009 38.0057C18.9413 37.9222 18.8278 37.9786 18.6951 38.0465C17.8396 38.4902 16.9777 38.9225 16.1255 39.3735C15.7475 39.574 15.3375 39.7201 15.0056 39.9979H14.9253L14.9263 39.9999Z" fill="#1AAEF4"></path>
    <path d="M18.9041 24.3644C15.8077 24.3644 12.7124 24.3644 9.61607 24.3644C8.89016 24.3644 8.7574 24.2412 8.76811 23.5176C8.78952 22.0872 8.6696 20.6516 8.84091 19.2264C9.23813 15.9156 10.8977 13.3816 13.827 11.6464C13.9908 11.5493 14.1022 11.5691 14.2585 11.6589C17.3709 13.4495 20.4887 13.4526 23.6022 11.6652C23.7917 11.5566 23.9212 11.566 24.1032 11.6756C26.9983 13.4276 28.6568 15.948 29.0336 19.2494C29.206 20.7529 29.0807 22.2658 29.1011 23.7745C29.1064 24.2005 28.8912 24.3623 28.3912 24.3633C26.3366 24.3654 24.281 24.3633 22.2263 24.3633H18.9041V24.3644Z" fill="#1AAEF4"></path>
    <path d="M18.9123 10.3125C16.0237 10.3083 13.6554 7.98624 13.6543 5.15676C13.6543 2.31371 16.0387 -0.00729139 18.9519 1.72133e-05C21.8427 0.00732582 24.21 2.32833 24.21 5.15676C24.21 8.00085 21.8299 10.3177 18.9123 10.3125Z" fill="#1AAEF4"></path>
    <path d="M8.86179 34.8509C7.82432 34.3143 6.84359 33.8256 5.88213 33.3005C5.55237 33.1198 5.29969 33.1292 4.97314 33.3067C3.99991 33.8371 3.0074 34.332 1.96672 34.8687C2.16907 33.7129 2.35108 32.6134 2.56093 31.5182C2.61768 31.2206 2.56522 31.0212 2.34038 30.7988C1.53845 30.0053 0.76543 29.1836 0.000976562 28.3932C0.730099 28.2878 1.55558 28.1688 2.38106 28.0497C2.48599 28.0341 2.59305 28.0028 2.69798 28.009C3.51382 28.0591 3.90462 27.6217 4.19155 26.9263C4.53738 26.0869 4.99455 25.2913 5.42924 24.4268C5.97207 25.5043 6.49669 26.5316 7.00312 27.5663C7.11233 27.7898 7.24509 27.8806 7.50633 27.914C8.65194 28.0581 9.79434 28.2366 11.0085 28.5008C10.8607 28.6198 10.7044 28.7305 10.5663 28.861C9.89605 29.4958 9.24509 30.1504 8.55772 30.7654C8.28256 31.0118 8.24187 31.2499 8.30719 31.584C8.49883 32.5529 8.65943 33.5281 8.82967 34.5012C8.84573 34.5899 8.8468 34.6807 8.86286 34.852L8.86179 34.8509Z" fill="#1AAEF4"></path>
    <path d="M32.4372 24.4259C32.9736 25.493 33.494 26.5141 33.9993 27.5415C34.1128 27.7733 34.2467 27.8798 34.5261 27.9142C35.6717 28.0562 36.813 28.2368 38.0004 28.4091C37.7017 28.7088 37.4405 28.9771 37.1717 29.2371C36.6407 29.7497 36.1203 30.2728 35.5668 30.7614C35.3066 30.9911 35.2467 31.2125 35.3109 31.5403C35.5208 32.623 35.6974 33.712 35.8966 34.8574C34.8741 34.3322 33.8912 33.8509 32.9351 33.3247C32.5818 33.1305 32.3109 33.1263 31.9587 33.3184C31.01 33.8373 30.0379 34.3176 28.9854 34.8595C29.1011 34.1777 29.2028 33.5752 29.3066 32.9739C29.3976 32.4487 29.4844 31.9225 29.5882 31.4004C29.6332 31.1749 29.5775 31.0151 29.403 30.8533C28.6514 30.1517 27.9115 29.4386 27.1706 28.7255C27.0807 28.6388 26.9544 28.5741 26.918 28.4039C27.7509 28.2838 28.5743 28.1523 29.403 28.0489C30.691 27.8881 30.6921 27.8965 31.2595 26.7657C31.6439 26.0004 32.0293 25.2351 32.4372 24.4238V24.4259Z" fill="#1AAEF4"></path>
  </g>
  <defs>
    <clipPath id="clip0_144_244">
      <rect width="38" height="40" fill="white"></rect>
    </clipPath>
  </defs>
</svg>
