<?xml version="1.0" encoding="UTF-8"?>
<svg xmlns="http://www.w3.org/2000/svg" width="41.983" height="42.007" viewBox="0 0 41.983 42.007">
  <g id="Effective_Communication" transform="translate(-6354.356 -504.049)">
    <path id="Path_97" data-name="Path 97" d="M6395.347,504.049a1.405,1.405,0,0,1,.992,1.532c-.029,1.476-.007,2.953-.009,4.43a1.258,1.258,0,0,1-1.4,1.422q-2.336,0-4.672,0a1.256,1.256,0,0,1-1.384-1.4c0-.339.115-.8-.057-.987-.2-.224-.667-.066-1.017-.069-1.282-.009-2.565,0-3.853,0,0,.141.114.153.181.2a15.8,15.8,0,0,1,7.005,11.425,1.511,1.511,0,0,0,.865,1.351,3.532,3.532,0,0,1,1.689,3.962,3.677,3.677,0,0,1-7.088.252,3.636,3.636,0,0,1,1.9-4.4c.18-.088.3-.158.27-.418a13.629,13.629,0,0,0-2.977-7.323,13.3,13.3,0,0,0-6.943-4.531c-.2-.057-.286.02-.387.176a3.623,3.623,0,0,1-6.227,0,.313.313,0,0,0-.424-.169,13.3,13.3,0,0,0-9.666,10.462c-.1.452-.131.919-.216,1.375-.04.216.033.308.223.4a3.649,3.649,0,0,1,1.872,4.654,3.7,3.7,0,0,1-6.132,1.165,3.636,3.636,0,0,1,1.3-5.874c.332-.143.289-.4.311-.631a15.933,15.933,0,0,1,1.153-4.668,15.714,15.714,0,0,1,5.829-7.168c.088-.06.176-.121.265-.183-.051-.116-.146-.066-.216-.066-1.462,0-2.924,0-4.385-.009-.27,0-.354.07-.334.337a8.053,8.053,0,0,1,0,.9,1.212,1.212,0,0,1-1.217,1.232c-1.667.014-3.333.006-5,0a1.37,1.37,0,0,1-1.24-.9v-5.579a1.643,1.643,0,0,1,.984-.9h5.493a1.36,1.36,0,0,1,.986,1.527c-.016.217.015.438-.007.654-.024.245.08.285.3.284q4.744-.01,9.488,0a.383.383,0,0,0,.409-.288,3.734,3.734,0,0,1,1.223-1.5,6.016,6.016,0,0,1,1.539-.676h1.066c.027.025.052.067.082.072a3.485,3.485,0,0,1,2.739,2.074.476.476,0,0,0,.514.322c2.917-.011,5.834-.007,8.751-.007.948,0,.972,0,.941-.934a1.392,1.392,0,0,1,.991-1.527Z" fill="#1aaef4"></path>
    <path id="Path_98" data-name="Path 98" d="M6468.276,634.066c-1.623-.728-3.332-.541-5.018-.554-1.653-.012-3.306,0-4.959,0a6.779,6.779,0,0,0-2.528.424c-.364.143-.424.007-.482-.3a15.32,15.32,0,0,0-2.421-5.765,15.658,15.658,0,0,0-1.548-1.906,1.331,1.331,0,0,1-.174-2l9.235-13.868c.052-.078.108-.154.168-.238.114.1.057.233.057.343,0,3.623,0,7.246.01,10.869a.47.47,0,0,1-.328.511,3.644,3.644,0,0,0-2.059,4.056,3.678,3.678,0,0,0,7.115.363,3.646,3.646,0,0,0-1.981-4.439c-.161-.075-.3-.115-.3-.359q.015-5.659.007-11.326c.15.006.168.135.22.213q4.635,6.947,9.262,13.9a1.263,1.263,0,0,1-.078,1.845,15.785,15.785,0,0,0-4.14,7.989C6468.32,633.889,6468.3,633.954,6468.276,634.066Z" transform="translate(-86.496 -94.921)" fill="#1aaef4"></path>
    <path id="Path_99" data-name="Path 99" d="M6484.979,868.619q-3.5,0-7.009,0a1.361,1.361,0,0,1-1.071-.413,1.114,1.114,0,0,1-.239-1.214,5.014,5.014,0,0,1,4.791-3.378q3.5-.011,7.01,0a4.986,4.986,0,0,1,4.786,3.206,1.216,1.216,0,0,1-1.216,1.8c-1.489.006-2.979,0-4.468,0Z" transform="translate(-109.644 -322.565)" fill="#1aaef4"></path>
    <path id="Path_100" data-name="Path 100" d="M6548.845,745.3a1.227,1.227,0,1,1-1.212-1.233A1.239,1.239,0,0,1,6548.845,745.3Z" transform="translate(-172.275 -215.318)" fill="#1aaef4"></path>
  </g>
</svg>
