<?xml version="1.0" encoding="UTF-8"?>
<svg xmlns="http://www.w3.org/2000/svg" width="35.74" height="35.74" viewBox="0 0 35.74 35.74">
  <g id="Scalability" transform="translate(99.956 -748)">
    <path id="Path_204" data-name="Path 204" d="M-8.67,748.007q13.459,0,26.917-.007c.252,0,.3.052.3.3q-.012,13.459-.007,26.917-13.415,0-26.829.008c-.316,0-.392-.076-.392-.392Q-8.663,761.421-8.67,748.007Zm6.28,19.373c0-.8,0-1.594,0-2.384,0-.156,0-.254-.214-.248-.557.017-1.116.012-1.674,0-.171,0-.211.052-.211.216q.008,2.93,0,5.859c0,.168.047.213.214.213q2.929-.008,5.859,0c.165,0,.218-.042.215-.212-.011-.523-.019-1.047,0-1.569.011-.259-.055-.33-.32-.324-.772.02-1.545.007-2.263.007L12.264,755.9c0,.743,0,1.531,0,2.318,0,.141-.03.269.2.262.569-.016,1.139-.011,1.709,0,.16,0,.19-.056.19-.2q-.006-2.947,0-5.894c0-.158-.051-.192-.2-.192q-2.947.007-5.894,0c-.2,0-.194.093-.193.233,0,.546.01,1.093,0,1.639,0,.186.053.232.233.23.709-.01,1.418-.007,2.127,0,.094,0,.205-.053.257.01Z" transform="translate(-82.767)" fill="#4800e2"></path>
    <path id="Path_205" data-name="Path 205" d="M-91.541,966.927c-2.7,0-5.4,0-8.094.007-.26,0-.322-.06-.321-.321q.013-8.129,0-16.257c0-.259.058-.324.32-.322q2.9.019,5.791,0c.26,0,.322.06.321.321-.01,3.268,0,6.535-.014,9.8,0,.29.066.358.357.357,3.256-.012,6.512,0,9.768-.015.29,0,.359.066.357.357q-.022,2.878,0,5.756c0,.261-.062.322-.322.321C-86.1,966.923-88.82,966.927-91.541,966.927Z" transform="translate(0 -183.194)" fill="#4800e2"></path>
  </g>
</svg>
