<?xml version="1.0" encoding="UTF-8"?>
<svg xmlns="http://www.w3.org/2000/svg" width="37.213" height="37.34" viewBox="0 0 37.213 37.34">
  <g id="Competitive_Edge" transform="translate(-7619.27 -1090.854)">
    <path id="Path_115" data-name="Path 115" d="M7780.176,1090.854c.248.073.5.131.742.223a3.284,3.284,0,1,1-2.078-.095c.106-.03.248,0,.314-.128Z" transform="translate(-141.861 0)" fill="#1aaef4"></path>
    <path id="Path_116" data-name="Path 116" d="M7754.07,1280.363v-8.639a1.13,1.13,0,0,1,1.295-1.288h8.384a1.119,1.119,0,0,1,1.26,1.251q0,8.675,0,17.351a1.114,1.114,0,0,1-1.241,1.234q-4.228,0-8.456,0a1.113,1.113,0,0,1-1.24-1.233Q7754.068,1284.7,7754.07,1280.363Z" transform="translate(-121.661 -162.079)" fill="#1aaef4"></path>
    <path id="Path_117" data-name="Path 117" d="M7619.383,1323.024v-6.415a1.124,1.124,0,0,1,1.269-1.278q4.21,0,8.42,0a1.117,1.117,0,0,1,1.25,1.26q0,6.47,0,12.939a1.118,1.118,0,0,1-1.25,1.26q-4.228,0-8.456,0a1.114,1.114,0,0,1-1.232-1.242Q7619.381,1326.286,7619.383,1323.024Z" transform="translate(-0.101 -202.598)" fill="#1aaef4"></path>
    <path id="Path_118" data-name="Path 118" d="M7888.754,1365.759q0-2.15,0-4.3a1.113,1.113,0,0,1,1.242-1.232q4.228,0,8.455,0a1.113,1.113,0,0,1,1.241,1.232q0,4.319,0,8.638a1.109,1.109,0,0,1-1.223,1.215q-4.247,0-8.492,0a1.108,1.108,0,0,1-1.223-1.214Q7888.752,1367.927,7888.754,1365.759Z" transform="translate(-243.219 -243.117)" fill="#1aaef4"></path>
    <path id="Path_119" data-name="Path 119" d="M7759.425,1173.577q-2.114,0-4.227,0a1.106,1.106,0,0,1-1.24-1.23,21.283,21.283,0,0,1,.069-2.91,5.394,5.394,0,0,1,1.5-2.972c.132-.137.213-.158.378-.023a5.4,5.4,0,0,0,7.044,0c.16-.129.242-.124.38.02a5.408,5.408,0,0,1,1.562,3.66c.025.765.011,1.53.006,2.3a1.1,1.1,0,0,1-1.168,1.158C7762.292,1173.58,7760.858,1173.577,7759.425,1173.577Z" transform="translate(-121.547 -68.138)" fill="#1aaef4"></path>
    <path id="Path_120" data-name="Path 120" d="M7624.755,1218.493q-2.114,0-4.227,0a1.111,1.111,0,0,1-1.244-1.262,22.013,22.013,0,0,1,.063-2.838,5.442,5.442,0,0,1,1.5-3.01c.156-.165.245-.138.406,0a5.408,5.408,0,0,0,6.989.008c.177-.145.271-.159.435.015a5.433,5.433,0,0,1,1.539,3.67c.021.753.01,1.506,0,2.259a1.1,1.1,0,0,1-1.164,1.162C7627.622,1218.5,7626.189,1218.493,7624.755,1218.493Z" transform="translate(0 -108.678)" fill="#1aaef4"></path>
    <path id="Path_121" data-name="Path 121" d="M7894.089,1263.357q-2.114,0-4.227,0a1.1,1.1,0,0,1-1.224-1.21,21.194,21.194,0,0,1,.07-2.947,5.418,5.418,0,0,1,1.506-2.968c.146-.152.23-.123.379,0a5.4,5.4,0,0,0,7.017,0c.17-.14.257-.14.407.018a5.412,5.412,0,0,1,1.549,3.629c.028.776.013,1.554.007,2.332a1.092,1.092,0,0,1-1.148,1.141C7896.981,1263.361,7895.536,1263.357,7894.089,1263.357Z" transform="translate(-243.101 -149.166)" fill="#1aaef4"></path>
    <path id="Path_122" data-name="Path 122" d="M7648.4,1139.058a3.281,3.281,0,1,1-3.271-3.3A3.288,3.288,0,0,1,7648.4,1139.058Z" transform="translate(-20.371 -40.528)" fill="#1aaef4"></path>
    <path id="Path_123" data-name="Path 123" d="M7917.776,1183.919a3.281,3.281,0,1,1-3.3-3.266A3.287,3.287,0,0,1,7917.776,1183.919Z" transform="translate(-263.491 -81.048)" fill="#1aaef4"></path>
  </g>
</svg>
