<?xml version="1.0" encoding="UTF-8"?>
<svg xmlns="http://www.w3.org/2000/svg" width="36.452" height="36.11" viewBox="0 0 36.452 36.11">
  <g id="First_Impression" transform="translate(-5590.806 -1133.887)">
    <path id="Path_64" data-name="Path 64" d="M5609.448,1231.414c-.464-.025-1.036-.065-1.609-.083-.238-.007-.342-.076-.327-.335.022-.356.016-.714,0-1.07a1.563,1.563,0,0,0-1.6-1.6c-.344-.012-.688-.012-1.032,0-.183.006-.245-.051-.24-.237.011-.459,0-.918,0-1.377a1.424,1.424,0,0,0-.782-1.345,1.4,1.4,0,0,0-1.549.118c-1.137.8-2.274,1.592-3.4,2.4a.371.371,0,0,1-.521,0,21.216,21.216,0,0,1-2.633-2.209q-2.112-2.106-4.219-4.218c-.126-.126-.262-.207-.053-.412,1.647-1.616,3.229-3.3,4.929-4.859a19.136,19.136,0,0,1,13.742-5.115c.395.007.788.054,1.184.068.2.007.263.086.256.281-.013.369-.01.739,0,1.109a1.559,1.559,0,0,0,1.583,1.607c.318.012.639.017.956,0,.24-.013.34.045.325.312-.023.458-.007.917-.006,1.376a1.418,1.418,0,0,0,2.292,1.19c1.146-.806,2.295-1.607,3.43-2.427a.4.4,0,0,1,.555.009,21.572,21.572,0,0,1,2.654,2.241q2.087,2.078,4.166,4.163c.123.123.269.2.058.412-1.674,1.643-3.279,3.359-5.01,4.94A19.244,19.244,0,0,1,5609.448,1231.414Zm.1-16.776a6.6,6.6,0,1,0,6.595,6.61A6.577,6.577,0,0,0,5609.553,1214.638Z" transform="translate(-0.518 -69.295)" fill="#1aaef4"></path>
    <path id="Path_65" data-name="Path 65" d="M5598.327,1373.41h-6.882c-.516,0-.637-.115-.637-.619q0-4.282,0-8.564c0-.525.1-.629.624-.63q3.174,0,6.347,0a1.017,1.017,0,0,0,.632-.2c1.295-.925,2.6-1.839,3.9-2.758.156-.11.311-.252.517-.131.185.109.156.3.156.481,0,.726.024,1.454-.01,2.179-.018.371.115.438.447.425.623-.025,1.249-.012,1.873-.005.428,0,.548.123.549.55q0,4.358,0,8.717c0,.422-.144.55-.591.55Q5601.787,1373.412,5598.327,1373.41Zm-2.616-5.535a1.443,1.443,0,0,0,.453,1.057c.611.612,1.229,1.217,1.832,1.839.226.234.4.247.634.009.6-.62,1.227-1.22,1.832-1.839a1.464,1.464,0,0,0,.14-2,1.446,1.446,0,0,0-2.012-.279c-.205.139-.319.171-.538,0a1.349,1.349,0,0,0-1.542-.116A1.428,1.428,0,0,0,5595.71,1367.876Z" transform="translate(0 -203.414)" fill="#1aaef4"></path>
    <path id="Path_66" data-name="Path 66" d="M5807.828,1133.887h6.845c.544,0,.657.108.657.64q0,4.283,0,8.565c0,.5-.107.61-.605.611q-3.193,0-6.386,0a.961.961,0,0,0-.6.19q-1.991,1.418-3.994,2.818c-.128.09-.248.245-.44.139s-.148-.278-.149-.441c0-.8-.009-1.606,0-2.409,0-.235-.061-.305-.3-.3-.649.016-1.3.008-1.95,0-.506,0-.616-.106-.616-.6q0-4.3,0-8.6c0-.5.125-.613.646-.613Zm0,3.041c-1.541,0-3.081,0-4.622,0-.423,0-.667.214-.67.562s.243.569.658.589c.1.005.2,0,.305,0h8.9a.621.621,0,0,0,.647-.375c.17-.41-.121-.774-.634-.776C5810.885,1136.925,5809.357,1136.928,5807.83,1136.928Zm-.057,3.4c1.565,0,3.132,0,4.7,0a.57.57,0,0,0,.621-.536.585.585,0,0,0-.6-.611c-.076-.007-.152,0-.229,0h-8.9a1.106,1.106,0,0,0-.488.062.537.537,0,0,0-.336.584.524.524,0,0,0,.456.491,2.233,2.233,0,0,0,.381.015Z" transform="translate(-188.073)" fill="#1aaef4"></path>
    <path id="Path_67" data-name="Path 67" d="M5733.818,1271.208a4.014,4.014,0,1,1-4.015,4A4.019,4.019,0,0,1,5733.818,1271.208Zm-2.021,3.9a.574.574,0,0,0,.51.677.561.561,0,0,0,.626-.524c.132-.662.265-.8.917-.924.386-.076.578-.313.528-.657a.571.571,0,0,0-.664-.483A2.02,2.02,0,0,0,5731.8,1275.109Z" transform="translate(-124.787 -123.282)" fill="#1aaef4"></path>
  </g>
</svg>
