<?xml version="1.0" encoding="UTF-8"?>
<svg xmlns="http://www.w3.org/2000/svg" width="42" height="42" viewBox="0 0 42 42" fill="none">
  <g clip-path="url(#clip0_144_269)">
    <path d="M21.9502 0.290039C22.1669 0.430484 22.4228 0.407411 22.6606 0.444529C25.7217 0.911008 28.3043 2.28637 30.4253 4.53048C32.1009 6.3031 33.2106 8.38671 33.7253 10.7693C34.4085 13.9373 33.9761 16.9629 32.452 19.826C31.9494 20.771 31.3203 21.6287 30.6119 22.4312C30.4625 22.6008 30.3571 22.6399 30.1514 22.5265C29.435 22.1333 28.6565 21.9848 27.8438 21.9868C26.0428 21.9908 24.2418 21.9838 22.4408 21.9929C22.199 21.9939 22.0184 21.9307 21.8328 21.7732C19.6827 19.9444 17.1964 19.0415 14.3711 19.1268C12.7768 19.1749 11.2668 19.5892 9.86011 20.3386C9.55309 20.5021 9.44975 20.4339 9.29624 20.161C7.74409 17.3983 7.16116 14.4479 7.76115 11.3351C8.76147 6.13156 11.8357 2.67259 16.8192 0.906995C17.4694 0.676264 18.1496 0.528796 18.8399 0.444529C19.0265 0.421456 19.2352 0.444529 19.3877 0.290039H21.9502ZM21.9502 4.62378C21.9502 4.29775 21.9582 4.08407 21.9492 3.87139C21.9201 3.2103 21.4124 2.7057 20.7733 2.69466C20.1181 2.68363 19.5864 3.18823 19.5553 3.86939C19.5392 4.22853 19.5252 4.59168 19.5583 4.94881C19.5884 5.27886 19.4579 5.42833 19.167 5.56376C16.8573 6.64218 16.463 9.88145 18.4235 11.5106C19.1098 12.0804 19.8954 12.3372 20.7713 12.3844C21.3151 12.4135 21.7004 12.6833 21.882 13.208C22.0475 13.6875 21.9181 14.1079 21.5649 14.4489C21.1787 14.8221 20.7191 14.8512 20.2295 14.6656C19.9235 14.5493 19.6827 14.3396 19.4319 14.143C18.8499 13.6865 18.1647 13.7226 17.7172 14.2332C17.2627 14.7519 17.3339 15.4642 17.8887 15.9738C18.3051 16.356 18.7687 16.666 19.2994 16.8616C19.4911 16.9328 19.5653 17.0261 19.5553 17.2338C19.5372 17.62 19.5392 18.0072 19.5543 18.3934C19.5804 19.0786 20.1011 19.5872 20.7563 19.5842C21.4114 19.5822 21.9271 19.0686 21.9492 18.3844C21.9602 18.0514 21.9733 17.7153 21.9452 17.3842C21.9211 17.0963 22.0084 16.9569 22.2843 16.8245C23.9759 16.0119 24.7274 14.2212 24.1515 12.4355C23.7422 11.1655 22.5321 10.04 20.7573 9.97475C20.1743 9.95268 19.781 9.64269 19.6175 9.13609C19.468 8.67262 19.6265 8.14896 20.0098 7.84299C20.4151 7.51896 20.9389 7.4989 21.4345 7.76474C21.8067 7.96437 22.0847 8.26934 22.3837 8.55224C22.8813 9.02273 23.5626 9.03477 24.0401 8.58835C24.5318 8.1299 24.5649 7.42667 24.1094 6.901C23.6789 6.40342 23.2114 5.90284 22.5984 5.68214C21.9673 5.45542 21.8459 5.07822 21.9492 4.62278L21.9502 4.62378Z" fill="#4800E2"></path>
    <path d="M41.2505 24.9505C39.009 28.6191 36.4285 32.057 34.0115 35.6063C32.5386 37.7691 30.4476 38.8776 27.8119 38.8806C21.9816 38.8877 16.1502 38.8806 10.3199 38.8907C10.0018 38.8907 9.93359 38.8064 9.93359 38.4994C9.94363 33.4695 9.94363 28.4405 9.93359 23.4106C9.93359 23.1146 10.0369 22.9652 10.2807 22.8237C13.4292 20.9959 16.5315 21.0802 19.5846 23.0444C19.9408 23.2742 20.2689 23.557 20.5759 23.851C20.9873 24.2452 21.4528 24.4037 22.0217 24.3977C23.9832 24.3787 25.9447 24.3867 27.9062 24.3917C29.0319 24.3947 29.941 24.9996 30.2811 25.9536C30.857 27.5688 29.7323 29.1688 27.9825 29.1909C26.4614 29.21 24.9404 29.1949 23.4193 29.1949C22.5655 29.1949 21.7117 29.1909 20.8578 29.1959C20.0762 29.2009 19.5495 29.6945 19.5535 30.4038C19.5585 31.112 20.0843 31.5945 20.8739 31.5955C23.4755 31.5985 26.0781 31.6056 28.6798 31.5915C29.5487 31.5865 30.2781 31.2484 30.8339 30.5542C32.8516 28.0363 34.8783 25.5253 36.896 23.0063C37.5582 22.1797 38.397 21.8105 39.4324 22.0703C40.4287 22.3211 41.0237 22.9903 41.2033 24.0125C41.2073 24.0336 41.2354 24.0506 41.2525 24.0697V24.9505H41.2505Z" fill="#4800E2"></path>
    <path d="M0.25 31.5949C0.25 28.8732 0.25 26.1516 0.25 23.43C0.25 22.4388 0.699491 21.9814 1.68777 21.9904C2.56769 21.9984 3.45162 21.9192 4.32753 22.0315C6.20074 22.2703 7.51309 23.6838 7.52714 25.5728C7.55724 29.6146 7.56025 33.6574 7.52714 37.7002C7.51008 39.7467 5.9469 41.2404 3.89007 41.2816C3.11651 41.2966 2.34194 41.2886 1.56837 41.2836C0.740627 41.2776 0.254013 40.793 0.25301 39.9614C0.248997 37.1725 0.252007 34.3847 0.251003 31.5959L0.25 31.5949Z" fill="#4800E2"></path>
  </g>
  <defs>
    <clipPath id="clip0_144_269">
      <rect width="41" height="41" fill="white" transform="translate(0.25 0.290039)"></rect>
    </clipPath>
  </defs>
</svg>
