<?xml version="1.0" encoding="UTF-8"?>
<svg xmlns="http://www.w3.org/2000/svg" width="40.639" height="40.777" viewBox="0 0 40.639 40.777">
  <g id="Competitive_Adv" transform="translate(-7619.27 -1090.854)">
    <path id="Path_79" data-name="Path 79" d="M7780.519,1090.854c.271.08.548.144.811.244a3.586,3.586,0,1,1-2.27-.1c.116-.033.271.005.343-.14Z" transform="translate(-140.45)" fill="#1aaef4"></path>
    <path id="Path_80" data-name="Path 80" d="M7754.069,1281.277q0-4.717,0-9.434a1.234,1.234,0,0,1,1.415-1.407h9.155a1.222,1.222,0,0,1,1.375,1.366q0,9.474,0,18.948a1.216,1.216,0,0,1-1.354,1.347q-4.617,0-9.235,0a1.216,1.216,0,0,1-1.355-1.347Q7754.068,1286.014,7754.069,1281.277Z" transform="translate(-120.451 -160.468)" fill="#1aaef4"></path>
    <path id="Path_81" data-name="Path 81" d="M7619.382,1323.732q0-3.5,0-7.005a1.227,1.227,0,0,1,1.385-1.4q4.6,0,9.195,0a1.22,1.22,0,0,1,1.365,1.376q0,7.065,0,14.131a1.221,1.221,0,0,1-1.365,1.376q-4.618,0-9.235,0a1.217,1.217,0,0,1-1.345-1.357Q7619.381,1327.295,7619.382,1323.732Z" transform="translate(-0.1 -200.584)" fill="#1aaef4"></path>
    <path id="Path_82" data-name="Path 82" d="M7888.754,1366.268q0-2.349,0-4.7a1.215,1.215,0,0,1,1.355-1.346q4.617,0,9.234,0a1.216,1.216,0,0,1,1.356,1.345q0,4.716,0,9.433a1.211,1.211,0,0,1-1.335,1.326q-4.637,0-9.274,0a1.211,1.211,0,0,1-1.336-1.326Q7888.751,1368.636,7888.754,1366.268Z" transform="translate(-240.801 -240.7)" fill="#1aaef4"></path>
    <path id="Path_83" data-name="Path 83" d="M7759.93,1174.243q-2.308,0-4.616,0a1.208,1.208,0,0,1-1.354-1.344,23.17,23.17,0,0,1,.075-3.178,5.9,5.9,0,0,1,1.634-3.245c.144-.15.232-.173.413-.026a5.9,5.9,0,0,0,7.693,0c.174-.141.264-.136.414.021a5.906,5.906,0,0,1,1.706,4c.027.835.012,1.671.006,2.507a1.2,1.2,0,0,1-1.275,1.264C7763.06,1174.246,7761.5,1174.243,7759.93,1174.243Z" transform="translate(-120.338 -67.46)" fill="#1aaef4"></path>
    <path id="Path_84" data-name="Path 84" d="M7625.261,1219.158q-2.308,0-4.616,0a1.214,1.214,0,0,1-1.358-1.379,23.956,23.956,0,0,1,.069-3.1,5.934,5.934,0,0,1,1.635-3.288c.17-.18.268-.151.444,0a5.906,5.906,0,0,0,7.633.009c.191-.159.295-.174.473.016a5.933,5.933,0,0,1,1.682,4.008c.023.822.01,1.645,0,2.467a1.2,1.2,0,0,1-1.271,1.269C7628.391,1219.162,7626.826,1219.158,7625.261,1219.158Z" transform="translate(0 -107.597)" fill="#1aaef4"></path>
    <path id="Path_85" data-name="Path 85" d="M7894.594,1264.022q-2.309,0-4.616,0a1.2,1.2,0,0,1-1.336-1.322,22.976,22.976,0,0,1,.078-3.218,5.912,5.912,0,0,1,1.644-3.241c.16-.166.251-.134.414,0a5.9,5.9,0,0,0,7.662,0c.186-.153.281-.153.445.02a5.907,5.907,0,0,1,1.692,3.963c.03.848.014,1.7.007,2.546a1.192,1.192,0,0,1-1.253,1.246C7897.75,1264.027,7896.172,1264.022,7894.594,1264.022Z" transform="translate(-240.684 -147.683)" fill="#1aaef4"></path>
    <path id="Path_86" data-name="Path 86" d="M7649.007,1139.362a3.583,3.583,0,1,1-3.572-3.6A3.59,3.59,0,0,1,7649.007,1139.362Z" transform="translate(-20.168 -40.126)" fill="#1aaef4"></path>
    <path id="Path_87" data-name="Path 87" d="M7918.381,1184.22a3.583,3.583,0,1,1-3.609-3.566A3.589,3.589,0,0,1,7918.381,1184.22Z" transform="translate(-260.872 -80.242)" fill="#1aaef4"></path>
  </g>
</svg>
