<?xml version="1.0" encoding="UTF-8"?>
<svg xmlns="http://www.w3.org/2000/svg" width="35.235" height="35.224" viewBox="0 0 35.235 35.224">
  <g id="Customization" transform="translate(322.243 -755.065)">
    <path id="Path_203" data-name="Path 203" d="M-322.243,774.063V771.31c.137-.2.076-.434.118-.651a.956.956,0,0,1,.972-.881,9.346,9.346,0,0,0,1.057-.122,3.837,3.837,0,0,0,3.06-3.146,3.841,3.841,0,0,0-1.151-3.446,1,1,0,0,1-.125-1.469,17.675,17.675,0,0,1,2.761-2.726.991.991,0,0,1,1.183-.072,4.872,4.872,0,0,1,.464.408,3.9,3.9,0,0,0,5.7-.524,4.082,4.082,0,0,0,.8-2.4c.026-.747.359-1.059,1.1-1.136.1-.011.233.056.306-.079h2.616c.031.092.111.063.173.063,1.018.013,1.5.229,1.533,1.545a3.781,3.781,0,0,0,4.406,3.578,4.185,4.185,0,0,0,2.314-1.174.976.976,0,0,1,1.39-.111,17.311,17.311,0,0,1,2.753,2.781.979.979,0,0,1-.049,1.291c-.113.13-.233.253-.348.381a3.892,3.892,0,0,0,.454,5.549,4.162,4.162,0,0,0,2.438.894c.754.041,1.155.385,1.223,1.042a19.384,19.384,0,0,1,0,3.674,1.125,1.125,0,0,1-1.174,1.026,3.878,3.878,0,0,0-3.974,3.51,3.882,3.882,0,0,0,1.2,3.2,1.013,1.013,0,0,1,.044,1.549,18.8,18.8,0,0,1-2.641,2.6,1.032,1.032,0,0,1-1.121.169,2.782,2.782,0,0,1-.608-.5,3.924,3.924,0,0,0-3.671-.813,3.743,3.743,0,0,0-2.765,3.569c-.033,1.018-.49,1.305-1.341,1.354a25.928,25.928,0,0,1-2.989,0c-.962-.056-1.451-.314-1.406-1.448a1.318,1.318,0,0,0,0-.138,3.821,3.821,0,0,0-3.812-3.584,4.029,4.029,0,0,0-2.9,1.2.98.98,0,0,1-1.415.129,17.332,17.332,0,0,1-2.751-2.783.977.977,0,0,1,.053-1.29c.113-.13.233-.253.348-.38a3.908,3.908,0,0,0-.426-5.533,3.922,3.922,0,0,0-2.393-.906,1.173,1.173,0,0,1-1.321-1.245C-322.177,774.2-322.132,774.1-322.243,774.063Zm26.325,3.816a.9.9,0,0,0,.088-.107,9.909,9.909,0,0,0,.109-9.947,10.093,10.093,0,0,0-10.9-5.1,10.187,10.187,0,0,0-8.1,8.938,9.95,9.95,0,0,0,2,7.137,10.158,10.158,0,0,0,13.265,2.639c.245-.145.3-.209.067-.435q-2.024-1.991-4.015-4.015a.437.437,0,0,0-.555-.128,6.025,6.025,0,0,1-3.347.259,6.226,6.226,0,0,1-4.837-7.474c.074-.328.158-.628.513-.745.379-.125.625.1.867.343.859.86,1.725,1.715,2.585,2.574a.7.7,0,0,0,.6.257c.66-.078,1.319-.159,1.97-.295a.338.338,0,0,0,.285-.3c.135-.628.207-1.266.29-1.9a.735.735,0,0,0-.253-.669c-.9-.886-1.781-1.787-2.674-2.68a.725.725,0,0,1-.231-.777.722.722,0,0,1,.618-.478,7.754,7.754,0,0,1,1.086-.158,6.008,6.008,0,0,1,5.668,2.9,6,6,0,0,1,.568,5.467c-.048.138-.115.252.031.4C-298.788,775-297.364,776.433-295.918,777.879Z" transform="translate(0 0)" fill="#11b400"></path>
  </g>
</svg>
