<?xml version="1.0" encoding="UTF-8"?>
<svg xmlns="http://www.w3.org/2000/svg" width="31.735" height="36.267" viewBox="0 0 31.735 36.267">
  <g id="Decision_Making" transform="translate(-594.737 -785.646)">
    <path id="Path_206" data-name="Path 206" d="M607.706,785.646a1.348,1.348,0,0,1,.791,1.417c-.021,3.683-.01,7.366-.01,11.048,0,.88-.394,1.277-1.268,1.277H595.993a1.1,1.1,0,0,1-1.248-1.263c0-3.718.008-7.437-.008-11.155a1.229,1.229,0,0,1,.856-1.324Z" transform="translate(0 0)" fill="#1aaef4"></path>
    <path id="Path_207" data-name="Path 207" d="M784.3,785.646a1.349,1.349,0,0,1,.792,1.416c-.021,3.683-.01,7.365-.01,11.048,0,.88-.394,1.277-1.268,1.277H772.584a1.1,1.1,0,0,1-1.249-1.263c0-3.718.008-7.436-.008-11.154a1.232,1.232,0,0,1,.856-1.324Zm-3.245,5.478a1.015,1.015,0,0,0-.6-.96,1.025,1.025,0,0,0-1.18.185c-.334.316-.653.649-.979.974-.518.518-.518.518-1.028.018-.025-.025-.05-.051-.076-.075a1.074,1.074,0,0,0-1.525,0,1.058,1.058,0,0,0,.015,1.5c.432.453.876.894,1.327,1.328a1.039,1.039,0,0,0,1.521,0c.743-.726,1.473-1.466,2.206-2.2A1.031,1.031,0,0,0,781.051,791.124Z" transform="translate(-159.872 0)" fill="#1aaef4"></path>
    <path id="Path_208" data-name="Path 208" d="M594.815,969.088q0-2.815,0-5.629a1.094,1.094,0,0,1,1.233-1.243h11.295a1.084,1.084,0,0,1,1.215,1.222q0,5.647,0,11.294a1.085,1.085,0,0,1-1.212,1.225h-11.33a1.084,1.084,0,0,1-1.2-1.2Q594.813,971.921,594.815,969.088Z" transform="translate(-0.07 -159.854)" fill="#1aaef4"></path>
    <path id="Path_209" data-name="Path 209" d="M771.752,963.067c0,1.392,0,2.713,0,4.034a1.062,1.062,0,0,0,1.113,1.147,1.04,1.04,0,0,0,1-.958c.011-.129.007-.26.008-.389q.01-5.631.021-11.261a2.266,2.266,0,0,1,1.46-2.28,2.24,2.24,0,0,1,3.033,2.118q.017,3.63,0,7.26c0,.288.07.4.359.455,1.165.24,2.331.479,3.482.777a3.321,3.321,0,0,1,2.365,4.3c-.5,1.569-1.1,3.1-1.72,4.63a1.063,1.063,0,0,1-1.068.718l-9.385,0a1.034,1.034,0,0,1-1.045-.644,28,28,0,0,1-1.654-4.872,4.457,4.457,0,0,1,1.682-4.806C771.491,963.222,771.593,963.168,771.752,963.067Z" transform="translate(-158.291 -151.703)" fill="#1aaef4"></path>
  </g>
</svg>
