<?xml version="1.0" encoding="UTF-8"?>
<svg xmlns="http://www.w3.org/2000/svg" width="38.894" height="32.061" viewBox="0 0 38.894 32.061">
  <g id="Data_Collection" transform="translate(-5242.597 616.129)">
    <path id="Path_193" data-name="Path 193" d="M5407.763-595.241a1.553,1.553,0,0,1-1.7.762c-.4-.042-.933.168-1.158-.082-.2-.219-.066-.745-.066-1.135,0-3.391-.008-6.781,0-10.172a2.516,2.516,0,0,0-1.5-2.494,2.771,2.771,0,0,0-1.223-.19q-7.23,0-14.462.009a.622.622,0,0,1-.661-.415c-.424-.913-.889-1.806-1.325-2.712a2.507,2.507,0,0,0-2.441-1.531c-1.189,0-2.379-.012-3.567.009-.326.006-.4-.093-.385-.4.027-.466,0-.936.01-1.4a1.109,1.109,0,0,1,1.131-1.124c2.67,0,5.339,0,8.009-.008a.412.412,0,0,1,.423.288c.456.94.926,1.874,1.378,2.815a2.533,2.533,0,0,0,2.474,1.541c4.518-.006,9.034.008,13.551-.014a1.449,1.449,0,0,1,1.514.845Z" transform="translate(-126.272 0)" fill="#e8b400"></path>
    <path id="Path_194" data-name="Path 194" d="M5256.829-457.937c-4.289,0-8.578-.013-12.867.013a1.3,1.3,0,0,1-1.365-1.348q.037-9.488,0-18.976a1.273,1.273,0,0,1,1.323-1.344c2.581.033,5.162.017,7.743.006a.51.51,0,0,1,.541.345c.44.933.91,1.853,1.362,2.781a2.525,2.525,0,0,0,2.45,1.52c4.871,0,9.742,0,14.613-.009.362,0,.473.1.472.466q-.017,7.609-.008,15.219a1.171,1.171,0,0,1-1.32,1.328Zm7.35-4.014c0-.2.006-.334,0-.472a1.159,1.159,0,0,0-1.043-1.107,1.112,1.112,0,0,0-1.175.856,2.619,2.619,0,0,0,.017,1.38,1.067,1.067,0,0,0,.937.768,1.078,1.078,0,0,0,1.047-.471A1.372,1.372,0,0,0,5264.179-461.951Zm3.736-.046c0-.139,0-.279,0-.417a1.129,1.129,0,0,0-1.105-1.121,1.119,1.119,0,0,0-1.133,1.049,5.5,5.5,0,0,0,.014,1.022,1.1,1.1,0,0,0,1.4.9C5267.7-460.756,5267.917-461.125,5267.915-462Z" transform="translate(0 -126.144)" fill="#e8b400"></path>
    <path id="Path_195" data-name="Path 195" d="M5339.279-535.286q0,3.758,0,7.515a1.223,1.223,0,0,1-1.383,1.406c-.417,0-.836-.014-1.252.006-.255.012-.313-.077-.312-.322.011-1.657.005-3.315.005-4.972q0-3.112,0-6.225a2.474,2.474,0,0,0-2.572-2.58q-7.326,0-14.652.006a.571.571,0,0,1-.609-.367c-.441-.934-.91-1.855-1.363-2.784a2.464,2.464,0,0,0-2.385-1.492c-1.227,0-2.455-.006-3.682.006-.247,0-.331-.059-.32-.313.02-.467,0-.936.008-1.4a1.172,1.172,0,0,1,1.216-1.226c2.645-.01,5.289,0,7.933-.008a.423.423,0,0,1,.424.3c.449.931.921,1.85,1.365,2.783a2.563,2.563,0,0,0,2.528,1.575c4.821-.013,9.641-.005,14.462-.005.588,0,.588,0,.588.589Z" transform="translate(-62.968 -62.907)" fill="#e8b400"></path>
  </g>
</svg>
