<?xml version="1.0" encoding="UTF-8"?>
<svg xmlns="http://www.w3.org/2000/svg" width="37.106" height="39.403" viewBox="0 0 37.106 39.403">
  <g id="Visualization_Design" transform="translate(-4481.827 11.799)">
    <path id="Path_181" data-name="Path 181" d="M4731.549-11.8a7.477,7.477,0,0,1,.738.356,2.356,2.356,0,0,1,.55,3.539c-.851,1.059-1.716,2.106-2.575,3.158-1.442,1.767-2.888,3.531-4.32,5.305-.177.219-.262.211-.452.02q-2.218-2.242-4.46-4.461c-.183-.181-.214-.273.009-.455q4.251-3.454,8.485-6.929a5.151,5.151,0,0,1,1.024-.534Z" transform="translate(-214.469)" fill="#4800e2"></path>
    <path id="Path_182" data-name="Path 182" d="M4500.382,82.516a5.974,5.974,0,0,0-1.183,2.3.6.6,0,0,1-.566.519,6.335,6.335,0,0,0-5.265,6.155,18.923,18.923,0,0,1-.095,2.495,3.989,3.989,0,0,1-.606,1.393,2.659,2.659,0,0,0,1.6,4,2.377,2.377,0,0,0,2.092-.332,3.978,3.978,0,0,1,2.507-.675,9.344,9.344,0,0,0,3.589-.467,6.23,6.23,0,0,0,3.923-4.752c.076-.341.171-.526.552-.626a6.266,6.266,0,0,0,3.332-2.272c1.169-1.46,2.361-2.9,3.544-4.352.04-.048.084-.092.13-.141.108.086.056.2.056.288q.005,7.234.011,14.467c0,.308-.084.375-.38.374q-15.716-.012-31.433,0c-.272,0-.366-.043-.365-.346.012-5,0-10,.011-15.006a3.05,3.05,0,0,1,3-3.033c5.117-.015,10.234-.006,15.351-.006C4500.234,82.5,4500.28,82.509,4500.382,82.516Z" transform="translate(0 -84.601)" fill="#4800e2"></path>
    <path id="Path_183" data-name="Path 183" d="M4497.918,283.521q7.827,0,15.656-.009c.359,0,.44.1.432.442a4.247,4.247,0,0,1-.264,1.769,3.064,3.064,0,0,1-2.958,1.882q-4.135.018-8.271,0c-.306,0-.382.081-.372.378.023.653.018,1.308,0,1.962-.006.23.043.31.291.3.537-.021,1.077-.01,1.615-.006a1.154,1.154,0,1,1-.009,2.307q-6.136,0-12.271,0a1.155,1.155,0,1,1,.006-2.307c.5,0,1-.019,1.5.006.3.015.426-.045.408-.386-.032-.627-.03-1.257,0-1.884.015-.322-.1-.369-.388-.368q-4.154.014-8.309,0a3.094,3.094,0,0,1-3.109-2.55,8.521,8.521,0,0,1-.042-1.381c0-.116.045-.16.159-.154s.205,0,.308,0Z" transform="translate(0 -264.938)" fill="#4800e2"></path>
    <path id="Path_184" data-name="Path 184" d="M4610.571,139.449a9.235,9.235,0,0,0-1.988.127,4.711,4.711,0,0,0-2.144.859.38.38,0,0,1-.552-.014.37.37,0,0,1-.019-.522,6.083,6.083,0,0,0,1-3.782,8.383,8.383,0,0,1,.2-2.323,4.081,4.081,0,0,1,3.893-2.922,4.344,4.344,0,0,1,2.909,7.7,4.526,4.526,0,0,1-2.876.878C4610.854,139.45,4610.712,139.449,4610.571,139.449Z" transform="translate(-111.195 -127.993)" fill="#4800e2"></path>
    <path id="Path_185" data-name="Path 185" d="M4675.987,77.071c.063.058.119.106.171.158q2.459,2.459,4.922,4.916c.141.14.147.225.021.375-.5.587-.968,1.194-1.47,1.775a3.85,3.85,0,0,1-1.5,1.035c-.226.092-.306.082-.39-.189a6.531,6.531,0,0,0-4.591-4.58c-.258-.078-.25-.167-.168-.369a3.717,3.717,0,0,1,.977-1.449c.606-.531,1.241-1.031,1.863-1.543C4675.87,77.159,4675.92,77.122,4675.987,77.071Z" transform="translate(-171.449 -79.73)" fill="#4800e2"></path>
  </g>
</svg>
