<?xml version="1.0" encoding="UTF-8"?>
<svg xmlns="http://www.w3.org/2000/svg" width="40.233" height="43.103" viewBox="0 0 40.233 43.103">
  <g id="Advertising" transform="translate(-3549.55 -569.096)">
    <path id="Path_172" data-name="Path 172" d="M3630.09,589.98a1.512,1.512,0,0,1,1.035.572q7.062,7.064,14.128,14.123,1.921,1.92,3.841,3.841a1.474,1.474,0,0,1-.39,2.58q-7.468,3.99-14.935,7.982a.472.472,0,0,1-.67-.1q-6.178-6.2-12.378-12.381a.442.442,0,0,1-.1-.636q3.985-7.5,7.943-15.013A1.591,1.591,0,0,1,3630.09,589.98Z" transform="translate(-62.463 -18.377)" fill="#e8b400"></path>
    <path id="Path_173" data-name="Path 173" d="M3578.281,770.377a4.09,4.09,0,0,1-3-1.185c-1.419-1.393-2.836-2.788-4.216-4.219a4.231,4.231,0,0,1-.043-5.875c1.29-1.371,2.653-2.674,3.975-4.015.17-.173.263-.155.423.006q4.878,4.89,9.769,9.766c.171.171.158.262-.006.424-1.332,1.311-2.644,2.642-3.984,3.944A4.088,4.088,0,0,1,3578.281,770.377Z" transform="translate(-17.874 -163.561)" fill="#e8b400"></path>
    <path id="Path_174" data-name="Path 174" d="M3678.423,865.191a3.559,3.559,0,0,1-2.615-1.012c-.838-.811-1.655-1.644-2.476-2.471-.087-.088-.286-.163-.052-.334a36.537,36.537,0,0,0,3.315-3.142c.521-.493,1.026-1,1.524-1.52.163-.169.262-.169.426,0,.783.8,1.6,1.573,2.365,2.392a3.61,3.61,0,0,1-1.971,6.036A4.214,4.214,0,0,1,3678.423,865.191Z" transform="translate(-108.786 -252.992)" fill="#e8b400"></path>
    <path id="Path_175" data-name="Path 175" d="M3549.84,841.336a47.06,47.06,0,0,0,7.2,7.2,5.465,5.465,0,0,1-5.245-.884A5.722,5.722,0,0,1,3549.84,841.336Z" transform="translate(0 -239.573)" fill="#e8b400"></path>
    <path id="Path_176" data-name="Path 176" d="M3801.04,609.2a1.333,1.333,0,0,1,.419-1c.95-.954,1.9-1.912,2.857-2.854a1.44,1.44,0,1,1,2.049,2.022c-.95.974-1.915,1.934-2.886,2.888a1.379,1.379,0,0,1-1.574.292A1.41,1.41,0,0,1,3801.04,609.2Z" transform="translate(-221.312 -31.504)" fill="#e8b400"></path>
    <path id="Path_177" data-name="Path 177" d="M3756.009,571.992c0,.463,0,.927,0,1.391a1.435,1.435,0,1,1-2.871.022q-.01-1.436,0-2.871a1.435,1.435,0,1,1,2.871.023C3756.012,571.035,3756.009,571.513,3756.009,571.992Z" transform="translate(-179.154)" fill="#e8b400"></path>
    <path id="Path_178" data-name="Path 178" d="M3839.787,679.7c-.448,0-.9,0-1.345,0a1.436,1.436,0,1,1-.023-2.872q1.413-.008,2.826,0a1.436,1.436,0,1,1-.022,2.872C3840.745,679.7,3840.266,679.7,3839.787,679.7Z" transform="translate(-252.922 -94.8)" fill="#e8b400"></path>
  </g>
</svg>
