<?xml version="1.0" encoding="UTF-8"?>
<svg xmlns="http://www.w3.org/2000/svg" width="32.605" height="32.716" viewBox="0 0 32.605 32.716">
  <g id="Competitive_Advantage" transform="translate(-1274.615 -645.525)">
    <path id="Path_210" data-name="Path 210" d="M1409.906,842.309a1.227,1.227,0,0,1-.712-1.279c.016-4.984.009-9.967.009-14.951,0-.792.357-1.15,1.146-1.15h7.284c.794,0,1.154.355,1.154,1.142q0,7.523.007,15.047a1.106,1.106,0,0,1-.773,1.192Z" transform="translate(-123.075 -164.069)" fill="#e8b400"></path>
    <path id="Path_211" data-name="Path 211" d="M1275.349,883.328a1.225,1.225,0,0,1-.712-1.279c.019-3.706.009-7.412.009-11.117,0-.791.357-1.15,1.146-1.15h7.283c.794,0,1.155.355,1.155,1.142,0,3.738-.006,7.475.007,11.213a1.105,1.105,0,0,1-.773,1.191Z" transform="translate(-0.02 -205.088)" fill="#e8b400"></path>
    <path id="Path_212" data-name="Path 212" d="M1544.457,924.347a1.222,1.222,0,0,1-.712-1.279c.023-2.438.009-4.877.01-7.316a.985.985,0,0,1,1.114-1.118h7.347a.985.985,0,0,1,1.123,1.11c0,2.47-.009,4.941.007,7.411a1.1,1.1,0,0,1-.774,1.191Z" transform="translate(-246.125 -246.106)" fill="#e8b400"></path>
    <path id="Path_213" data-name="Path 213" d="M1413.987,727.272q-1.852,0-3.7,0a.97.97,0,0,1-1.088-1.076,19.479,19.479,0,0,1,.056-2.518,4.722,4.722,0,0,1,1.314-2.636c.113-.118.184-.143.331-.023a4.73,4.73,0,0,0,6.172,0c.138-.112.211-.113.333.014a4.741,4.741,0,0,1,1.37,3.207c.022.67.009,1.341,0,2.011a.961.961,0,0,1-1.022,1.016C1416.5,727.275,1415.243,727.272,1413.987,727.272Z" transform="translate(-123.065 -68.968)" fill="#e8b400"></path>
    <path id="Path_214" data-name="Path 214" d="M1279.412,772.124q-1.852,0-3.7,0a.969.969,0,0,1-1.08-1.085,18.461,18.461,0,0,1,.061-2.55,4.742,4.742,0,0,1,1.314-2.6c.122-.126.194-.125.332-.011a4.731,4.731,0,0,0,6.147.013c.167-.138.249-.11.379.029a4.75,4.75,0,0,1,1.344,3.218c.017.638.006,1.277,0,1.915a.973.973,0,0,1-1.063,1.072Q1281.28,772.127,1279.412,772.124Z" transform="translate(0 -109.986)" fill="#e8b400"></path>
    <path id="Path_215" data-name="Path 215" d="M1548.51,816.969q-1.852,0-3.7,0a.965.965,0,0,1-1.072-1.06,18.444,18.444,0,0,1,.062-2.582,4.744,4.744,0,0,1,1.318-2.6c.128-.133.2-.108.332,0a4.732,4.732,0,0,0,6.147,0c.149-.122.225-.123.357.016a4.742,4.742,0,0,1,1.358,3.18c.024.68.011,1.362.005,2.043a.957.957,0,0,1-1.005,1C1551.043,816.972,1549.776,816.969,1548.51,816.969Z" transform="translate(-246.102 -150.996)" fill="#e8b400"></path>
    <path id="Path_216" data-name="Path 216" d="M1431.734,648.379a2.875,2.875,0,1,1,2.862,2.9A2.88,2.88,0,0,1,1431.734,648.379Z" transform="translate(-143.689 0)" fill="#e8b400"></path>
    <path id="Path_217" data-name="Path 217" d="M1300.05,690.379a2.875,2.875,0,1,1-2.871,2.886A2.878,2.878,0,0,1,1300.05,690.379Z" transform="translate(-20.635 -41.02)" fill="#e8b400"></path>
    <path id="Path_218" data-name="Path 218" d="M1569.149,740.981a2.875,2.875,0,1,1,2.89-2.867A2.882,2.882,0,0,1,1569.149,740.981Z" transform="translate(-266.743 -82.039)" fill="#e8b400"></path>
  </g>
</svg>
