<?xml version="1.0" encoding="UTF-8"?>
<svg xmlns="http://www.w3.org/2000/svg" width="38.54" height="38.55" viewBox="0 0 38.54 38.55">
  <g id="UX" transform="translate(-5035.476 -364.363)">
    <path id="Path_186" data-name="Path 186" d="M5185.87,364.363a1.691,1.691,0,0,1,.931.993c.231.511.515,1,.752,1.508a.57.57,0,0,0,.5.361c.708.086,1.413.2,2.118.3a1.142,1.142,0,0,1,.649,2c-.493.482-.986.966-1.5,1.423a.585.585,0,0,0-.217.616c.123.625.224,1.255.343,1.881a1.2,1.2,0,0,1-.393,1.288,1.164,1.164,0,0,1-1.369.046c-.627-.336-1.268-.648-1.9-.982a.424.424,0,0,0-.447,0c-.64.34-1.289.663-1.928,1a1.15,1.15,0,0,1-1.335-.071,1.187,1.187,0,0,1-.4-1.253c.114-.64.227-1.28.351-1.918a.559.559,0,0,0-.195-.588c-.5-.443-.966-.913-1.449-1.369a1.165,1.165,0,0,1-.41-1.276,1.15,1.15,0,0,1,1.065-.807c.682-.084,1.361-.2,2.043-.286a.532.532,0,0,0,.485-.331c.259-.568.575-1.109.834-1.676a1.892,1.892,0,0,1,.787-.855Z" transform="translate(-130.821)" fill="#1aaef4"></path>
    <path id="Path_187" data-name="Path 187" d="M5335.682,442.038a12.066,12.066,0,0,1-1.866,1.917.661.661,0,0,0-.24.679c.129.624.232,1.253.347,1.88a1.189,1.189,0,0,1-.426,1.277,1.162,1.162,0,0,1-1.309.041c-.621-.321-1.248-.632-1.862-.966a.553.553,0,0,0-.59.006c-.592.32-1.2.621-1.793.934a1.2,1.2,0,0,1-1.376-.026,1.21,1.21,0,0,1-.405-1.316c.125-.638.222-1.281.344-1.919a.5.5,0,0,0-.177-.521c-.5-.454-.983-.931-1.478-1.394a1.151,1.151,0,0,1-.4-1.276,1.2,1.2,0,0,1,1.106-.815c.719-.1,1.436-.211,2.156-.3.176-.021.227-.121.289-.244.309-.613.627-1.222.925-1.84a1.2,1.2,0,0,1,2.223.005c.3.618.618,1.226.922,1.842a.371.371,0,0,0,.332.241c.721.084,1.437.2,2.157.294a1.308,1.308,0,0,1,1.121.9Z" transform="translate(-261.667 -66.159)" fill="#1aaef4"></path>
    <path id="Path_188" data-name="Path 188" d="M5138,509.767a6.779,6.779,0,1,1,8.225-.005,12.023,12.023,0,0,1,1.709.981,9.966,9.966,0,0,1,4.261,7.156,42.738,42.738,0,0,1,.066,4.659,1.086,1.086,0,0,1-1.025,1.016c-.113.008-.227,0-.339,0-5.856,0-11.712-.011-17.568.013a1.265,1.265,0,0,1-1.391-1.406c.051-1.089-.024-2.183.019-3.272a10,10,0,0,1,5.683-8.965C5137.751,509.889,5137.864,509.836,5138,509.767Z" transform="translate(-87.364 -120.678)" fill="#1aaef4"></path>
    <path id="Path_189" data-name="Path 189" d="M5037.213,446.69c.1-.561.209-1.264.353-1.961a.734.734,0,0,0-.258-.812c-.488-.411-.933-.874-1.4-1.313a1.134,1.134,0,0,1-.374-1.249,1.181,1.181,0,0,1,1.068-.812c.718-.1,1.435-.213,2.154-.3a.371.371,0,0,0,.33-.242c.3-.615.624-1.222.921-1.84a1.2,1.2,0,0,1,2.223-.006c.292.607.609,1.2.907,1.806a.424.424,0,0,0,.378.287c.72.079,1.437.19,2.154.3a1.168,1.168,0,0,1,1.048.836,1.132,1.132,0,0,1-.38,1.215c-.492.465-.969.946-1.477,1.393a.582.582,0,0,0-.2.619c.122.625.226,1.254.343,1.88a1.2,1.2,0,0,1-.4,1.284,1.163,1.163,0,0,1-1.338.054c-.621-.319-1.245-.633-1.861-.964a.523.523,0,0,0-.555,0c-.648.348-1.3.7-1.963,1.01A1.147,1.147,0,0,1,5037.213,446.69Z" transform="translate(0 -66.16)" fill="#1aaef4"></path>
  </g>
</svg>
